<svg xmlns="http://www.w3.org/2000/svg" xmlns:xlink="http://www.w3.org/1999/xlink" width="512" zoomAndPan="magnify" viewBox="0 0 384 383.999986" height="512" preserveAspectRatio="xMidYMid meet" version="1.0"><defs><filter x="0%" y="0%" width="100%" height="100%" id="1ab5aec89e"><feColorMatrix values="0 0 0 0 1 0 0 0 0 1 0 0 0 0 1 0 0 0 1 0" color-interpolation-filters="sRGB"/></filter><g/><mask id="f602237525"><g filter="url(#1ab5aec89e)"><rect x="-38.4" width="460.8" fill="#000000" y="-38.399999" height="460.799983" fill-opacity="0.07"/></g></mask><clipPath id="5d2ba0553f"><path d="M 0 0 L 384 0 L 384 384 L 0 384 Z M 0 0 " clip-rule="nonzero"/></clipPath><clipPath id="dfeb0e05fd"><rect x="0" width="384" y="0" height="384"/></clipPath></defs><rect x="-38.4" width="460.8" fill="#ffffff" y="-38.399999" height="460.799983" fill-opacity="1"/><rect x="-38.4" width="460.8" fill="#f69515" y="-38.399999" height="460.799983" fill-opacity="1"/><g mask="url(#f602237525)"><g><g clip-path="url(#dfeb0e05fd)"><g clip-path="url(#5d2ba0553f)"><g fill="#ffffff" fill-opacity="1"><g transform="translate(-142.296251, 369.885607)"><g><path d="M 203.03125 -180.390625 C 192.84375 -207.296875 189.816406 -233.820312 193.953125 -259.96875 C 198.097656 -286.125 207.851562 -309.75 223.21875 -330.84375 C 238.59375 -351.9375 257.691406 -369.078125 280.515625 -382.265625 C 303.335938 -395.460938 328.394531 -402.945312 355.6875 -404.71875 C 382.976562 -406.488281 410.722656 -400.796875 438.921875 -387.640625 C 459.347656 -378.003906 477.894531 -366.953125 494.5625 -354.484375 C 511.238281 -342.023438 529.003906 -325.722656 547.859375 -305.578125 C 553.347656 -299.859375 555.628906 -293.695312 554.703125 -287.09375 C 553.773438 -280.5 550.851562 -274.957031 545.9375 -270.46875 C 541.019531 -265.976562 535.300781 -263.460938 528.78125 -262.921875 C 522.269531 -262.390625 516.171875 -265.320312 510.484375 -271.71875 C 494.253906 -289.332031 476.316406 -305.582031 456.671875 -320.46875 C 437.023438 -335.363281 416.222656 -345.90625 394.265625 -352.09375 C 372.304688 -358.28125 349.675781 -357.019531 326.375 -348.3125 C 307.851562 -342.21875 291.25 -331.414062 276.5625 -315.90625 C 261.875 -300.40625 251.675781 -282.398438 245.96875 -261.890625 C 240.269531 -241.378906 241.78125 -220.039062 250.5 -197.875 C 258.363281 -177.300781 268.578125 -159.304688 281.140625 -143.890625 C 293.710938 -128.472656 305.796875 -114.023438 317.390625 -100.546875 C 328.984375 -87.066406 337.15625 -73.265625 341.90625 -59.140625 C 346.65625 -45.023438 345.019531 -28.742188 337 -10.296875 C 328.070312 8.796875 313.566406 20.988281 293.484375 26.28125 C 273.410156 31.570312 253.929688 30.085938 235.046875 21.828125 C 212.609375 11.710938 190.4375 -2.941406 168.53125 -22.140625 C 146.625 -41.335938 128.789062 -64.765625 115.03125 -92.421875 C 111.351562 -99.453125 110.925781 -105.910156 113.75 -111.796875 C 116.570312 -117.679688 120.867188 -122.078125 126.640625 -124.984375 C 132.421875 -127.890625 138.492188 -128.65625 144.859375 -127.28125 C 151.222656 -125.914062 156.234375 -121.710938 159.890625 -114.671875 C 167.847656 -98.585938 178.410156 -83.675781 191.578125 -69.9375 C 204.742188 -56.195312 218.351562 -44.914062 232.40625 -36.09375 C 246.457031 -27.269531 258.910156 -22.125 269.765625 -20.65625 C 280.617188 -19.1875 287.820312 -22.898438 291.375 -31.796875 C 295.125 -40.023438 294.289062 -48.398438 288.875 -56.921875 C 283.457031 -65.441406 275.535156 -75.140625 265.109375 -86.015625 C 254.679688 -96.890625 243.851562 -109.960938 232.625 -125.234375 C 221.40625 -140.515625 211.539062 -158.898438 203.03125 -180.390625 Z M 346.21875 -221.40625 C 349.226562 -215.269531 355.820312 -206.257812 366 -194.375 C 376.175781 -182.5 387.375 -168.523438 399.59375 -152.453125 C 411.8125 -136.390625 422.414062 -118.335938 431.40625 -98.296875 C 440.394531 -78.253906 445.265625 -56.835938 446.015625 -34.046875 C 446.765625 -11.265625 440.59375 12.546875 427.5 37.390625 C 411.375 67.992188 391.3125 91 367.3125 106.40625 C 343.320312 121.820312 317.117188 130.40625 288.703125 132.15625 C 260.285156 133.90625 231.285156 128.96875 201.703125 117.34375 C 172.128906 105.726562 143.800781 87.960938 116.71875 64.046875 C 106.800781 55.992188 96.578125 46.359375 86.046875 35.140625 C 75.523438 23.921875 65.703125 11.378906 56.578125 -2.484375 C 52.234375 -9.316406 50.96875 -15.796875 52.78125 -21.921875 C 54.59375 -28.054688 58.171875 -32.96875 63.515625 -36.65625 C 68.867188 -40.351562 74.847656 -42.019531 81.453125 -41.65625 C 88.066406 -41.289062 93.769531 -37.582031 98.5625 -30.53125 C 117.039062 -3.226562 139.082031 20.003906 164.6875 39.171875 C 190.300781 58.335938 216.828125 71.46875 244.265625 78.5625 C 271.703125 85.65625 297.742188 84.359375 322.390625 74.671875 C 347.046875 64.992188 367.4375 44.851562 383.5625 14.25 C 393.15625 -3.945312 397.238281 -21.640625 395.8125 -38.828125 C 394.382812 -56.023438 389.460938 -72.503906 381.046875 -88.265625 C 372.640625 -104.023438 363.035156 -118.863281 352.234375 -132.78125 C 341.429688 -146.695312 331.160156 -159.476562 321.421875 -171.125 C 311.691406 -182.769531 304.90625 -193.007812 301.0625 -201.84375 C 294.84375 -215.882812 293.238281 -230.328125 296.25 -245.171875 C 299.257812 -260.023438 306.03125 -272.609375 316.5625 -282.921875 C 327.101562 -293.242188 341.023438 -299.226562 358.328125 -300.875 C 375.640625 -302.53125 395.378906 -297.234375 417.546875 -284.984375 C 439.722656 -272.734375 463.941406 -251.1875 490.203125 -220.34375 C 495.453125 -214.175781 497.390625 -207.910156 496.015625 -201.546875 C 494.648438 -195.179688 491.453125 -189.921875 486.421875 -185.765625 C 481.398438 -181.617188 475.632812 -179.554688 469.125 -179.578125 C 462.625 -179.597656 456.75 -182.691406 451.5 -188.859375 C 431.582031 -212.390625 414.378906 -228.679688 399.890625 -237.734375 C 385.398438 -246.796875 373.550781 -251.203125 364.34375 -250.953125 C 355.132812 -250.710938 349.066406 -247.535156 346.140625 -241.421875 C 343.210938 -235.304688 343.238281 -228.632812 346.21875 -221.40625 Z M 346.21875 -221.40625 "/></g></g></g></g></g></g></g><g fill="#ffffff" fill-opacity="1"><g transform="translate(23.844424, 240.120103)"><g><path d="M 18.890625 -50.296875 C 14.628906 -54.066406 11.65625 -58.429688 9.96875 -63.390625 C 8.28125 -68.347656 7.804688 -73.378906 8.546875 -78.484375 C 9.296875 -83.597656 11.054688 -88.359375 13.828125 -92.765625 C 16.609375 -97.179688 20.304688 -100.800781 24.921875 -103.625 C 29.535156 -106.457031 34.914062 -108.023438 41.0625 -108.328125 C 45.53125 -108.523438 49.796875 -108.300781 53.859375 -107.65625 C 57.929688 -107.007812 62.546875 -105.796875 67.703125 -104.015625 C 69.191406 -103.515625 70.160156 -102.644531 70.609375 -101.40625 C 71.054688 -100.164062 71.054688 -98.925781 70.609375 -97.6875 C 70.160156 -96.445312 69.390625 -95.476562 68.296875 -94.78125 C 67.203125 -94.082031 65.863281 -94.035156 64.28125 -94.640625 C 59.8125 -96.222656 55.171875 -97.410156 50.359375 -98.203125 C 45.554688 -98.992188 40.945312 -98.914062 36.53125 -97.96875 C 32.113281 -97.03125 28.269531 -94.726562 25 -91.0625 C 22.320312 -88.28125 20.410156 -84.859375 19.265625 -80.796875 C 18.128906 -76.734375 18.003906 -72.640625 18.890625 -68.515625 C 19.785156 -64.398438 22.019531 -60.804688 25.59375 -57.734375 C 28.863281 -54.859375 32.304688 -52.648438 35.921875 -51.109375 C 39.546875 -49.578125 42.992188 -48.164062 46.265625 -46.875 C 49.546875 -45.582031 52.25 -43.921875 54.375 -41.890625 C 56.507812 -39.859375 57.726562 -36.859375 58.03125 -32.890625 C 58.226562 -28.722656 56.8125 -25.25 53.78125 -22.46875 C 50.757812 -19.6875 47.21875 -18.148438 43.15625 -17.859375 C 38.289062 -17.554688 33.054688 -18.070312 27.453125 -19.40625 C 21.847656 -20.75 16.566406 -23.207031 11.609375 -26.78125 C 10.316406 -27.675781 9.644531 -28.765625 9.59375 -30.046875 C 9.539062 -31.335938 9.882812 -32.503906 10.625 -33.546875 C 11.375 -34.585938 12.367188 -35.28125 13.609375 -35.625 C 14.847656 -35.976562 16.113281 -35.707031 17.40625 -34.8125 C 20.28125 -32.726562 23.503906 -31.09375 27.078125 -29.90625 C 30.648438 -28.71875 34.070312 -28 37.34375 -27.75 C 40.625 -27.5 43.28125 -27.742188 45.3125 -28.484375 C 47.34375 -29.234375 48.257812 -30.550781 48.0625 -32.4375 C 47.957031 -34.21875 47.035156 -35.601562 45.296875 -36.59375 C 43.566406 -37.59375 41.285156 -38.5625 38.453125 -39.5 C 35.628906 -40.445312 32.53125 -41.738281 29.15625 -43.375 C 25.789062 -45.007812 22.367188 -47.316406 18.890625 -50.296875 Z M 40.171875 -70.671875 C 41.265625 -69.878906 43.25 -68.910156 46.125 -67.765625 C 49 -66.628906 52.242188 -65.21875 55.859375 -63.53125 C 59.484375 -61.84375 63.007812 -59.660156 66.4375 -56.984375 C 69.863281 -54.304688 72.691406 -51.007812 74.921875 -47.09375 C 77.148438 -43.175781 78.265625 -38.441406 78.265625 -32.890625 C 78.265625 -26.035156 76.875 -20.15625 74.09375 -15.25 C 71.320312 -10.34375 67.53125 -6.425781 62.71875 -3.5 C 57.90625 -0.570312 52.375 1.234375 46.125 1.921875 C 39.875 2.617188 33.28125 2.128906 26.34375 0.453125 C 23.851562 -0.046875 21.171875 -0.789062 18.296875 -1.78125 C 15.421875 -2.78125 12.546875 -4.070312 9.671875 -5.65625 C 8.285156 -6.445312 7.46875 -7.460938 7.21875 -8.703125 C 6.96875 -9.941406 7.140625 -11.128906 7.734375 -12.265625 C 8.328125 -13.410156 9.21875 -14.253906 10.40625 -14.796875 C 11.601562 -15.347656 12.945312 -15.226562 14.4375 -14.4375 C 20.1875 -11.363281 26.1875 -9.328125 32.4375 -8.328125 C 38.6875 -7.335938 44.535156 -7.488281 49.984375 -8.78125 C 55.441406 -10.070312 59.882812 -12.695312 63.3125 -16.65625 C 66.738281 -20.625 68.453125 -26.035156 68.453125 -32.890625 C 68.453125 -36.953125 67.53125 -40.421875 65.6875 -43.296875 C 63.851562 -46.171875 61.472656 -48.597656 58.546875 -50.578125 C 55.617188 -52.566406 52.566406 -54.28125 49.390625 -55.71875 C 46.222656 -57.15625 43.25 -58.441406 40.46875 -59.578125 C 37.695312 -60.722656 35.566406 -61.894531 34.078125 -63.09375 C 31.691406 -64.976562 30.078125 -67.359375 29.234375 -70.234375 C 28.390625 -73.109375 28.414062 -75.929688 29.3125 -78.703125 C 30.207031 -81.484375 32.09375 -83.816406 34.96875 -85.703125 C 37.84375 -87.585938 41.785156 -88.476562 46.796875 -88.375 C 51.804688 -88.28125 58.03125 -86.742188 65.46875 -83.765625 C 66.957031 -83.171875 67.875 -82.253906 68.21875 -81.015625 C 68.570312 -79.773438 68.5 -78.5625 68 -77.375 C 67.5 -76.1875 66.675781 -75.289062 65.53125 -74.6875 C 64.394531 -74.09375 63.085938 -74.097656 61.609375 -74.703125 C 55.953125 -76.984375 51.4375 -78.242188 48.0625 -78.484375 C 44.6875 -78.734375 42.203125 -78.410156 40.609375 -77.515625 C 39.023438 -76.628906 38.257812 -75.515625 38.3125 -74.171875 C 38.363281 -72.835938 38.984375 -71.671875 40.171875 -70.671875 Z M 40.171875 -70.671875 "/></g></g></g><g fill="#ffffff" fill-opacity="1"><g transform="translate(108.414083, 228.502124)"><g><path d="M 34.203125 -4.828125 C 30.472656 -1.722656 26.210938 -0.171875 21.421875 -0.171875 C 16.003906 -0.171875 11.375 -2.09375 7.53125 -5.9375 C 3.6875 -9.789062 1.765625 -14.421875 1.765625 -19.828125 C 1.765625 -25.285156 3.6875 -29.9375 7.53125 -33.78125 C 11.375 -37.625 16.003906 -39.546875 21.421875 -39.546875 C 26.253906 -39.546875 30.515625 -37.976562 34.203125 -34.84375 L 28.3125 -29.015625 C 26.3125 -30.546875 24.015625 -31.3125 21.421875 -31.3125 C 18.285156 -31.3125 15.597656 -30.191406 13.359375 -27.953125 C 11.117188 -25.722656 10 -23.015625 10 -19.828125 C 10 -16.691406 11.117188 -14.003906 13.359375 -11.765625 C 15.597656 -9.535156 18.285156 -8.421875 21.421875 -8.421875 C 24.015625 -8.421875 26.3125 -9.1875 28.3125 -10.71875 Z M 34.203125 -4.828125 "/></g></g></g><g fill="#ffffff" fill-opacity="1"><g transform="translate(146.139007, 228.502124)"><g><path d="M 15.71875 -30.3125 C 19.914062 -30.351562 23.484375 -28.898438 26.421875 -25.953125 C 29.410156 -22.972656 30.90625 -19.40625 30.90625 -15.25 C 30.9375 -11.050781 29.484375 -7.476562 26.546875 -4.53125 C 23.597656 -1.550781 20.046875 -0.0390625 15.890625 0 C 11.691406 0.0390625 8.101562 -1.410156 5.125 -4.359375 C 2.132812 -7.296875 0.640625 -10.863281 0.640625 -15.0625 C 0.609375 -19.257812 2.0625 -22.832031 5 -25.78125 C 7.945312 -28.757812 11.519531 -30.269531 15.71875 -30.3125 Z M 21.078125 -9.890625 C 22.523438 -11.335938 23.25 -13.101562 23.25 -15.1875 C 23.25 -17.226562 22.503906 -18.992188 21.015625 -20.484375 C 19.523438 -21.898438 17.757812 -22.609375 15.71875 -22.609375 C 13.675781 -22.609375 11.929688 -21.878906 10.484375 -20.421875 C 9.023438 -18.890625 8.296875 -17.125 8.296875 -15.125 C 8.296875 -13.082031 9.039062 -11.316406 10.53125 -9.828125 C 11.988281 -8.378906 13.753906 -7.65625 15.828125 -7.65625 C 17.953125 -7.726562 19.703125 -8.472656 21.078125 -9.890625 Z M 21.078125 -9.890625 "/></g></g></g><g fill="#ffffff" fill-opacity="1"><g transform="translate(177.684343, 228.502124)"><g><path d="M 38.84375 -30.375 C 42.925781 -30.414062 46.242188 -29.195312 48.796875 -26.71875 C 51.546875 -24.132812 52.921875 -20.503906 52.921875 -15.828125 L 52.921875 0 L 45.265625 0 L 45.265625 -15.296875 C 45.265625 -15.890625 45.164062 -16.554688 44.96875 -17.296875 C 44.695312 -18.203125 44.320312 -19.007812 43.84375 -19.71875 C 42.59375 -21.71875 40.75 -22.71875 38.3125 -22.71875 C 35.726562 -22.71875 33.847656 -21.71875 32.671875 -19.71875 C 32.234375 -18.96875 31.914062 -18.125 31.71875 -17.1875 C 31.5625 -16.519531 31.484375 -15.851562 31.484375 -15.1875 L 31.484375 0 L 23.78125 0 L 23.78125 -15.296875 C 23.78125 -15.890625 23.679688 -16.554688 23.484375 -17.296875 C 23.242188 -18.203125 22.890625 -19.007812 22.421875 -19.71875 C 21.128906 -21.71875 19.285156 -22.71875 16.890625 -22.71875 C 14.265625 -22.71875 12.363281 -21.71875 11.1875 -19.71875 C 10.75 -18.96875 10.429688 -18.125 10.234375 -17.1875 C 10.078125 -16.519531 10 -15.851562 10 -15.1875 L 10 0 L 1.765625 0 L 1.765625 -30.4375 L 10 -30.4375 L 10 -27.25 C 11.925781 -29.332031 14.398438 -30.375 17.421875 -30.375 C 21.859375 -30.445312 25.445312 -28.738281 28.1875 -25.25 L 30.671875 -27.546875 C 32.984375 -29.429688 35.707031 -30.375 38.84375 -30.375 Z M 38.84375 -30.375 "/></g></g></g><g fill="#ffffff" fill-opacity="1"><g transform="translate(232.35899, 228.502124)"><g><path d="M 17.546875 -30.3125 C 21.703125 -30.351562 25.269531 -28.898438 28.25 -25.953125 C 31.226562 -23.015625 32.738281 -19.445312 32.78125 -15.25 C 32.820312 -11.082031 31.367188 -7.507812 28.421875 -4.53125 C 25.484375 -1.550781 21.914062 -0.0390625 17.71875 0 C 14.300781 0 11.726562 -1.078125 10 -3.234375 L 10 11.296875 L 1.765625 11.296875 L 1.765625 -30.25 L 10 -30.25 L 10 -27.078125 C 11.613281 -29.148438 14.128906 -30.226562 17.546875 -30.3125 Z M 22.953125 -9.890625 C 24.441406 -11.378906 25.148438 -13.144531 25.078125 -15.1875 C 25.078125 -17.269531 24.347656 -19.035156 22.890625 -20.484375 C 21.398438 -21.898438 19.632812 -22.609375 17.59375 -22.609375 C 15.519531 -22.609375 13.753906 -21.878906 12.296875 -20.421875 C 10.847656 -18.890625 10.125 -17.125 10.125 -15.125 C 10.195312 -13.007812 10.941406 -11.242188 12.359375 -9.828125 C 13.804688 -8.378906 15.570312 -7.65625 17.65625 -7.65625 C 19.78125 -7.726562 21.546875 -8.472656 22.953125 -9.890625 Z M 22.953125 -9.890625 "/></g></g></g><g fill="#ffffff" fill-opacity="1"><g transform="translate(266.081892, 228.502124)"><g><path d="M 23.546875 -30.4375 L 31.78125 -30.4375 L 31.78125 0 L 23.546875 0 L 23.546875 -3.40625 C 21.859375 -1.21875 19.304688 -0.125 15.890625 -0.125 C 11.734375 -0.0820312 8.160156 -1.53125 5.171875 -4.46875 C 2.191406 -7.414062 0.679688 -10.988281 0.640625 -15.1875 C 0.609375 -19.34375 2.0625 -22.910156 5 -25.890625 C 7.945312 -28.878906 11.519531 -30.394531 15.71875 -30.4375 C 19.164062 -30.4375 21.773438 -29.316406 23.546875 -27.078125 Z M 21.078125 -10 C 22.523438 -11.457031 23.25 -13.222656 23.25 -15.296875 C 23.25 -17.421875 22.503906 -19.1875 21.015625 -20.59375 C 19.523438 -22.09375 17.78125 -22.800781 15.78125 -22.71875 C 13.695312 -22.71875 11.929688 -21.992188 10.484375 -20.546875 C 9.023438 -19.085938 8.296875 -17.320312 8.296875 -15.25 C 8.296875 -13.207031 9.039062 -11.441406 10.53125 -9.953125 C 11.988281 -8.492188 13.753906 -7.765625 15.828125 -7.765625 C 17.953125 -7.847656 19.703125 -8.59375 21.078125 -10 Z M 21.078125 -10 "/></g></g></g><g fill="#ffffff" fill-opacity="1"><g transform="translate(299.628239, 228.502124)"><g><path d="M 14.015625 0 C 11.972656 0 10.1875 -0.3125 8.65625 -0.9375 C 7.4375 -1.375 6.179688 -2.179688 4.890625 -3.359375 C 2.648438 -5.429688 1.628906 -8.054688 1.828125 -11.234375 L 1.828125 -11.890625 L 8.421875 -11.765625 L 8.953125 -11.765625 L 8.953125 -11.296875 C 8.984375 -10.316406 9.195312 -9.515625 9.59375 -8.890625 C 10.257812 -7.753906 11.734375 -7.1875 14.015625 -7.1875 C 15.890625 -7.1875 17.238281 -7.398438 18.0625 -7.828125 C 18.5 -8.023438 18.796875 -8.28125 18.953125 -8.59375 C 19.035156 -8.707031 19.078125 -8.828125 19.078125 -8.953125 L 19.125 -9.234375 C 19.125 -10.066406 18.476562 -10.734375 17.1875 -11.234375 C 16.675781 -11.429688 16.085938 -11.59375 15.421875 -11.71875 C 14.910156 -11.832031 14.34375 -11.925781 13.71875 -12 C 11.363281 -12.238281 9.398438 -12.710938 7.828125 -13.421875 C 6.253906 -14.046875 4.957031 -14.910156 3.9375 -16.015625 C 2.53125 -17.617188 1.828125 -19.460938 1.828125 -21.546875 C 1.828125 -22.835938 2.0625 -24.035156 2.53125 -25.140625 C 2.882812 -25.992188 3.351562 -26.753906 3.9375 -27.421875 C 6.0625 -29.859375 9.457031 -31.078125 14.125 -31.078125 C 16.914062 -31.078125 19.269531 -30.523438 21.1875 -29.421875 C 22.675781 -28.597656 23.875 -27.484375 24.78125 -26.078125 C 25.488281 -25.015625 25.976562 -23.773438 26.25 -22.359375 C 26.332031 -21.890625 26.390625 -21.441406 26.421875 -21.015625 L 26.421875 -19.78125 L 19.3125 -19.78125 L 19.3125 -20.65625 C 19.269531 -20.8125 19.25 -20.96875 19.25 -21.125 C 19.132812 -21.5625 18.976562 -21.914062 18.78125 -22.1875 C 17.914062 -23.363281 16.363281 -23.953125 14.125 -23.953125 C 10.832031 -23.953125 9.1875 -23.265625 9.1875 -21.890625 C 9.1875 -21.191406 9.578125 -20.625 10.359375 -20.1875 C 11.179688 -19.675781 12.570312 -19.304688 14.53125 -19.078125 C 19.050781 -18.597656 22.332031 -17.164062 24.375 -14.78125 C 25.738281 -13.164062 26.421875 -11.316406 26.421875 -9.234375 L 26.421875 -8.828125 L 26.375 -8.296875 C 26.375 -7.785156 26.3125 -7.316406 26.1875 -6.890625 C 25.875 -5.628906 25.285156 -4.507812 24.421875 -3.53125 C 23.441406 -2.351562 22.070312 -1.472656 20.3125 -0.890625 C 18.539062 -0.296875 16.441406 0 14.015625 0 Z M 14.015625 0 "/></g></g></g><g fill="#ffffff" fill-opacity="1"><g transform="translate(327.818938, 228.502124)"><g><path d="M 14.015625 0 C 11.972656 0 10.1875 -0.3125 8.65625 -0.9375 C 7.4375 -1.375 6.179688 -2.179688 4.890625 -3.359375 C 2.648438 -5.429688 1.628906 -8.054688 1.828125 -11.234375 L 1.828125 -11.890625 L 8.421875 -11.765625 L 8.953125 -11.765625 L 8.953125 -11.296875 C 8.984375 -10.316406 9.195312 -9.515625 9.59375 -8.890625 C 10.257812 -7.753906 11.734375 -7.1875 14.015625 -7.1875 C 15.890625 -7.1875 17.238281 -7.398438 18.0625 -7.828125 C 18.5 -8.023438 18.796875 -8.28125 18.953125 -8.59375 C 19.035156 -8.707031 19.078125 -8.828125 19.078125 -8.953125 L 19.125 -9.234375 C 19.125 -10.066406 18.476562 -10.734375 17.1875 -11.234375 C 16.675781 -11.429688 16.085938 -11.59375 15.421875 -11.71875 C 14.910156 -11.832031 14.34375 -11.925781 13.71875 -12 C 11.363281 -12.238281 9.398438 -12.710938 7.828125 -13.421875 C 6.253906 -14.046875 4.957031 -14.910156 3.9375 -16.015625 C 2.53125 -17.617188 1.828125 -19.460938 1.828125 -21.546875 C 1.828125 -22.835938 2.0625 -24.035156 2.53125 -25.140625 C 2.882812 -25.992188 3.351562 -26.753906 3.9375 -27.421875 C 6.0625 -29.859375 9.457031 -31.078125 14.125 -31.078125 C 16.914062 -31.078125 19.269531 -30.523438 21.1875 -29.421875 C 22.675781 -28.597656 23.875 -27.484375 24.78125 -26.078125 C 25.488281 -25.015625 25.976562 -23.773438 26.25 -22.359375 C 26.332031 -21.890625 26.390625 -21.441406 26.421875 -21.015625 L 26.421875 -19.78125 L 19.3125 -19.78125 L 19.3125 -20.65625 C 19.269531 -20.8125 19.25 -20.96875 19.25 -21.125 C 19.132812 -21.5625 18.976562 -21.914062 18.78125 -22.1875 C 17.914062 -23.363281 16.363281 -23.953125 14.125 -23.953125 C 10.832031 -23.953125 9.1875 -23.265625 9.1875 -21.890625 C 9.1875 -21.191406 9.578125 -20.625 10.359375 -20.1875 C 11.179688 -19.675781 12.570312 -19.304688 14.53125 -19.078125 C 19.050781 -18.597656 22.332031 -17.164062 24.375 -14.78125 C 25.738281 -13.164062 26.421875 -11.316406 26.421875 -9.234375 L 26.421875 -8.828125 L 26.375 -8.296875 C 26.375 -7.785156 26.3125 -7.316406 26.1875 -6.890625 C 25.875 -5.628906 25.285156 -4.507812 24.421875 -3.53125 C 23.441406 -2.351562 22.070312 -1.472656 20.3125 -0.890625 C 18.539062 -0.296875 16.441406 0 14.015625 0 Z M 14.015625 0 "/></g></g></g></svg>