<svg xmlns="http://www.w3.org/2000/svg" xmlns:xlink="http://www.w3.org/1999/xlink" width="512" zoomAndPan="magnify" viewBox="0 0 384 383.999986" height="512" preserveAspectRatio="xMidYMid meet" version="1.0"><defs><g/></defs><g fill="#ffffff" fill-opacity="1"><g transform="translate(55.154111, 228.113019)"><g><path d="M 44.203125 0 L 44.203125 -0.109375 L 3.5 -75.8125 L 24.5 -75.8125 L 44.328125 -38.03125 L 64.03125 -75.8125 L 85.03125 -75.8125 L 44.328125 -0.109375 Z M 44.203125 0 "/></g></g></g><g fill="#ffffff" fill-opacity="1"><g transform="translate(143.682436, 228.113019)"><g><path d="M 19.71875 -81.296875 L 19.71875 -67.53125 L 3.5 -67.53125 L 3.5 -81.296875 Z M 19.828125 -59.953125 L 19.828125 0 L 3.5 0 L 3.5 -59.953125 Z M 19.828125 -59.953125 "/></g></g></g><g fill="#ffffff" fill-opacity="1"><g transform="translate(167.010064, 228.113019)"><g><path d="M 39.3125 -60.0625 C 47.625 -59.988281 54.695312 -57 60.53125 -51.09375 C 66.363281 -45.175781 69.242188 -38.097656 69.171875 -29.859375 C 69.085938 -21.535156 66.09375 -14.457031 60.1875 -8.625 C 54.28125 -2.800781 47.203125 0.0703125 38.953125 0 C 31.878906 0 25.546875 -2.289062 19.953125 -6.875 L 19.953125 0 L 3.609375 0 L 3.5 -81.421875 L 19.828125 -81.421875 L 19.828125 -52.953125 C 25.429688 -57.691406 31.925781 -60.0625 39.3125 -60.0625 Z M 49.578125 -19.484375 C 52.367188 -22.273438 53.84375 -25.773438 54 -29.984375 C 54 -33.941406 52.5625 -37.4375 49.6875 -40.46875 C 46.8125 -43.351562 43.3125 -44.796875 39.1875 -44.796875 C 35.144531 -44.796875 31.644531 -43.394531 28.6875 -40.59375 C 25.8125 -37.71875 24.375 -34.21875 24.375 -30.09375 C 24.21875 -26.050781 25.617188 -22.550781 28.578125 -19.59375 C 31.378906 -16.789062 34.878906 -15.3125 39.078125 -15.15625 C 43.191406 -15.15625 46.691406 -16.597656 49.578125 -19.484375 Z M 49.578125 -19.484375 "/></g></g></g><g fill="#ffffff" fill-opacity="1"><g transform="translate(238.042675, 228.113019)"><g><path d="M 61.359375 -27.40625 C 61.429688 -25.78125 61.429688 -24.8125 61.359375 -24.5 L 17.5 -24.609375 C 18.113281 -22.816406 19.238281 -21.109375 20.875 -19.484375 C 23.90625 -16.597656 27.40625 -15.15625 31.375 -15.15625 C 35.570312 -15.3125 39.070312 -16.789062 41.875 -19.59375 L 42.34375 -20.0625 L 57.5 -15.28125 C 54.15625 -10.070312 50.65625 -6.335938 47 -4.078125 C 42.882812 -1.429688 37.71875 -0.0703125 31.5 0 C 23.25 0.0703125 16.171875 -2.800781 10.265625 -8.625 C 4.359375 -14.457031 1.363281 -21.535156 1.28125 -29.859375 C 1.207031 -38.097656 4.085938 -45.175781 9.921875 -51.09375 C 15.742188 -57 22.816406 -59.988281 31.140625 -60.0625 C 39.378906 -60.144531 46.457031 -57.269531 52.375 -51.4375 C 58.28125 -45.601562 61.273438 -38.523438 61.359375 -30.203125 Z M 31.265625 -44.796875 C 27.140625 -44.796875 23.640625 -43.351562 20.765625 -40.46875 C 19.285156 -38.84375 18.234375 -37.210938 17.609375 -35.578125 L 45.015625 -35.578125 C 44.398438 -37.210938 43.3125 -38.882812 41.75 -40.59375 C 38.800781 -43.394531 35.304688 -44.796875 31.265625 -44.796875 Z M 31.265625 -44.796875 "/></g></g></g><g fill="#ff1493" fill-opacity="1"><g transform="translate(276.274972, 223.685737)"><g><path d="M 8.125 -0.0625 C 7.09375 1.78125 7.0625 3.085938 8.03125 3.859375 C 9.007812 4.628906 9.992188 4.910156 10.984375 4.703125 C 11.972656 4.503906 12.957031 4.140625 13.9375 3.609375 C 18.125 1.328125 21.90625 -2.25 25.28125 -7.125 C 28.65625 -12 29.910156 -16.519531 29.046875 -20.6875 C 28.578125 -22.96875 25.515625 -24.9375 19.859375 -26.59375 C 17.210938 -27.332031 15.703125 -27.78125 15.328125 -27.9375 C 12.140625 -29.21875 9.988281 -30.71875 8.875 -32.4375 C 7.9375 -29.632812 6.34375 -25.5625 4.09375 -20.21875 C 3.550781 -19.226562 2.914062 -18.898438 2.1875 -19.234375 C 1.457031 -19.566406 1.265625 -20.210938 1.609375 -21.171875 C 4.660156 -27.878906 6.457031 -33.347656 7 -37.578125 C 6.53125 -43.441406 9.617188 -49.445312 16.265625 -55.59375 C 22.910156 -61.75 29.347656 -65.476562 35.578125 -66.78125 C 39.535156 -67.601562 42.460938 -67.476562 44.359375 -66.40625 C 46.265625 -65.34375 47.359375 -64.132812 47.640625 -62.78125 C 47.921875 -61.425781 47.851562 -59.785156 47.4375 -57.859375 C 47.03125 -55.929688 45.785156 -53.9375 43.703125 -51.875 C 43.171875 -51.34375 42.632812 -51.335938 42.09375 -51.859375 C 41.757812 -52.441406 42.023438 -53.394531 42.890625 -54.71875 C 43.753906 -56.039062 44.144531 -57.664062 44.0625 -59.59375 C 43.976562 -61.53125 42.910156 -62.503906 40.859375 -62.515625 C 40.546875 -62.453125 40.234375 -62.382812 39.921875 -62.3125 C 35.867188 -61.476562 31.113281 -58.914062 25.65625 -54.625 C 20.195312 -50.34375 16.253906 -45.453125 13.828125 -39.953125 C 12.835938 -37.910156 12.53125 -35.976562 12.90625 -34.15625 C 13.289062 -32.332031 14.882812 -30.957031 17.6875 -30.03125 C 18.84375 -29.625 20.804688 -29 23.578125 -28.15625 C 26.359375 -27.320312 28.332031 -26.703125 29.5 -26.296875 C 30.675781 -25.898438 32.128906 -25.175781 33.859375 -24.125 C 35.597656 -23.070312 36.644531 -21.988281 37 -20.875 C 38.164062 -17.863281 37.421875 -14.128906 34.765625 -9.671875 C 31.003906 -3.242188 24.515625 2.0625 15.296875 6.25 C 13.222656 7.226562 11.066406 7.945312 8.828125 8.40625 C 6.585938 8.875 4.882812 8.363281 3.71875 6.875 C 3.3125 6.519531 3.015625 5.898438 2.828125 5.015625 C 2.648438 4.128906 3.179688 2.53125 4.421875 0.21875 C 5.660156 -1.664062 7.847656 -3.691406 10.984375 -5.859375 C 11.265625 -6.023438 11.53125 -6.023438 11.78125 -5.859375 C 12.039062 -5.703125 12.148438 -5.457031 12.109375 -5.125 C 12.078125 -4.789062 11.609375 -4.3125 10.703125 -3.6875 C 9.804688 -3.070312 8.945312 -1.863281 8.125 -0.0625 Z M 8.125 -0.0625 "/></g></g></g><g fill="#ffffff" fill-opacity="1"><g transform="translate(145.111037, 266.76067)"><g><path d="M 5.984375 -9.15625 C 7.253906 -9.132812 8.332031 -8.675781 9.21875 -7.78125 C 10.101562 -6.882812 10.539062 -5.804688 10.53125 -4.546875 C 10.519531 -3.273438 10.066406 -2.195312 9.171875 -1.3125 C 8.265625 -0.425781 7.1875 0.0078125 5.9375 0 C 4.851562 0 3.882812 -0.347656 3.03125 -1.046875 L 3.03125 0 L 0.546875 0 L 0.53125 -12.40625 L 3.015625 -12.40625 L 3.015625 -8.0625 C 3.867188 -8.789062 4.859375 -9.15625 5.984375 -9.15625 Z M 7.546875 -2.96875 C 7.972656 -3.394531 8.195312 -3.925781 8.21875 -4.5625 C 8.21875 -5.164062 8 -5.703125 7.5625 -6.171875 C 7.125 -6.609375 6.59375 -6.828125 5.96875 -6.828125 C 5.351562 -6.828125 4.820312 -6.613281 4.375 -6.1875 C 3.9375 -5.75 3.71875 -5.210938 3.71875 -4.578125 C 3.6875 -3.960938 3.898438 -3.429688 4.359375 -2.984375 C 4.773438 -2.554688 5.304688 -2.332031 5.953125 -2.3125 C 6.578125 -2.3125 7.109375 -2.53125 7.546875 -2.96875 Z M 7.546875 -2.96875 "/></g></g></g><g fill="#ffffff" fill-opacity="1"><g transform="translate(155.929144, 266.76067)"><g><path d="M 9.15625 -9.171875 L 5.546875 0.40625 C 5.148438 1.351562 4.523438 2.109375 3.671875 2.671875 C 2.816406 3.222656 1.890625 3.488281 0.890625 3.46875 L 0.890625 0.984375 C 1.253906 0.992188 1.617188 0.914062 1.984375 0.75 C 2.503906 0.507812 2.894531 0.132812 3.15625 -0.375 L 3.65625 -1.734375 L 0.53125 -9.171875 L 3.265625 -9.171875 L 4.921875 -5.171875 L 6.390625 -9.171875 Z M 9.15625 -9.171875 "/></g></g></g><g fill="#ffffff" fill-opacity="1"><g transform="translate(165.628134, 266.76067)"><g/></g></g><g fill="#ffffff" fill-opacity="1"><g transform="translate(170.246707, 266.76067)"><g><path d="M 5.234375 0.015625 C 4.453125 0.015625 3.769531 -0.09375 3.1875 -0.3125 C 2.707031 -0.507812 2.21875 -0.828125 1.71875 -1.265625 C 1.15625 -1.785156 0.796875 -2.429688 0.640625 -3.203125 C 0.578125 -3.453125 0.546875 -3.695312 0.546875 -3.9375 C 0.535156 -4.019531 0.535156 -4.101562 0.546875 -4.1875 L 0.546875 -4.3125 L 2.984375 -4.28125 L 2.984375 -4.296875 C 2.984375 -3.859375 3.078125 -3.5 3.265625 -3.21875 C 3.617188 -2.6875 4.273438 -2.421875 5.234375 -2.421875 C 6.773438 -2.421875 7.546875 -2.78125 7.546875 -3.5 C 7.546875 -4.195312 6.753906 -4.632812 5.171875 -4.8125 C 4.253906 -4.914062 3.472656 -5.109375 2.828125 -5.390625 C 2.222656 -5.628906 1.726562 -5.957031 1.34375 -6.375 C 0.8125 -6.96875 0.546875 -7.65625 0.546875 -8.4375 C 0.546875 -8.925781 0.632812 -9.382812 0.8125 -9.8125 C 0.945312 -10.125 1.125 -10.410156 1.34375 -10.671875 C 2.175781 -11.609375 3.492188 -12.078125 5.296875 -12.078125 C 6.367188 -12.078125 7.28125 -11.863281 8.03125 -11.4375 C 8.59375 -11.125 9.054688 -10.695312 9.421875 -10.15625 C 9.679688 -9.757812 9.863281 -9.300781 9.96875 -8.78125 C 10 -8.601562 10.019531 -8.425781 10.03125 -8.25 C 10.050781 -8.1875 10.0625 -8.125 10.0625 -8.0625 L 10.0625 -7.953125 L 7.625 -7.953125 L 7.625 -7.9375 C 7.632812 -8.289062 7.546875 -8.59375 7.359375 -8.84375 C 6.972656 -9.375 6.285156 -9.640625 5.296875 -9.640625 C 4.691406 -9.640625 4.191406 -9.566406 3.796875 -9.421875 C 3.316406 -9.222656 3.078125 -8.945312 3.078125 -8.59375 C 3.078125 -7.863281 3.863281 -7.410156 5.4375 -7.234375 C 7.207031 -7.023438 8.488281 -6.472656 9.28125 -5.578125 C 9.800781 -4.960938 10.0625 -4.269531 10.0625 -3.5 L 10.0625 -3.34375 C 10.0625 -3.269531 10.050781 -3.195312 10.03125 -3.125 C 10.019531 -2.9375 10 -2.757812 9.96875 -2.59375 C 9.84375 -2.125 9.617188 -1.703125 9.296875 -1.328125 C 8.898438 -0.890625 8.367188 -0.550781 7.703125 -0.3125 C 7.046875 -0.09375 6.222656 0.015625 5.234375 0.015625 Z M 5.234375 0.015625 "/></g></g></g><g fill="#ffffff" fill-opacity="1"><g transform="translate(180.833892, 266.76067)"><g><path d="M 7.859375 -1.09375 C 6.992188 -0.363281 5.984375 0 4.828125 0 C 3.566406 -0.0078125 2.488281 -0.46875 1.59375 -1.375 C 0.707031 -2.269531 0.269531 -3.34375 0.28125 -4.59375 C 0.289062 -5.863281 0.75 -6.941406 1.65625 -7.828125 C 2.550781 -8.722656 3.628906 -9.164062 4.890625 -9.15625 C 6.023438 -9.132812 7.019531 -8.753906 7.875 -8.015625 L 6.21875 -6.375 C 5.8125 -6.675781 5.363281 -6.828125 4.875 -6.828125 C 4.25 -6.828125 3.710938 -6.613281 3.265625 -6.1875 C 2.828125 -5.75 2.609375 -5.210938 2.609375 -4.578125 C 2.585938 -3.960938 2.800781 -3.429688 3.25 -2.984375 C 3.675781 -2.554688 4.207031 -2.332031 4.84375 -2.3125 C 5.34375 -2.3125 5.796875 -2.457031 6.203125 -2.75 Z M 7.859375 -1.09375 "/></g></g></g><g fill="#ffffff" fill-opacity="1"><g transform="translate(188.969681, 266.76067)"><g><path d="M 4.75 -9.15625 C 6.007812 -9.164062 7.085938 -8.722656 7.984375 -7.828125 C 8.878906 -6.929688 9.328125 -5.851562 9.328125 -4.59375 C 9.335938 -3.332031 8.898438 -2.257812 8.015625 -1.375 C 7.128906 -0.46875 6.054688 -0.0078125 4.796875 0 C 3.523438 0.0078125 2.441406 -0.425781 1.546875 -1.3125 C 0.648438 -2.195312 0.203125 -3.273438 0.203125 -4.546875 C 0.179688 -5.816406 0.617188 -6.894531 1.515625 -7.78125 C 2.398438 -8.675781 3.476562 -9.132812 4.75 -9.15625 Z M 6.359375 -2.984375 C 6.796875 -3.421875 7.015625 -3.953125 7.015625 -4.578125 C 7.015625 -5.191406 6.789062 -5.726562 6.34375 -6.1875 C 5.894531 -6.613281 5.363281 -6.828125 4.75 -6.828125 C 4.125 -6.828125 3.59375 -6.609375 3.15625 -6.171875 C 2.71875 -5.703125 2.5 -5.164062 2.5 -4.5625 C 2.5 -3.945312 2.726562 -3.414062 3.1875 -2.96875 C 3.625 -2.53125 4.15625 -2.3125 4.78125 -2.3125 C 5.414062 -2.332031 5.941406 -2.554688 6.359375 -2.984375 Z M 6.359375 -2.984375 "/></g></g></g><g fill="#ffffff" fill-opacity="1"><g transform="translate(198.491046, 266.76067)"><g><path d="M 11.71875 -9.171875 C 12.957031 -9.179688 13.960938 -8.8125 14.734375 -8.0625 C 15.554688 -7.28125 15.96875 -6.1875 15.96875 -4.78125 L 15.96875 0 L 13.65625 0 L 13.65625 -4.625 C 13.65625 -4.800781 13.628906 -5 13.578125 -5.21875 C 13.492188 -5.488281 13.378906 -5.734375 13.234375 -5.953125 C 12.859375 -6.554688 12.300781 -6.859375 11.5625 -6.859375 C 10.78125 -6.859375 10.210938 -6.554688 9.859375 -5.953125 C 9.734375 -5.722656 9.640625 -5.46875 9.578125 -5.1875 C 9.523438 -4.988281 9.5 -4.785156 9.5 -4.578125 L 9.5 0 L 7.171875 0 L 7.171875 -4.625 C 7.171875 -4.800781 7.144531 -5 7.09375 -5.21875 C 7.019531 -5.488281 6.910156 -5.734375 6.765625 -5.953125 C 6.378906 -6.554688 5.820312 -6.859375 5.09375 -6.859375 C 4.300781 -6.859375 3.726562 -6.554688 3.375 -5.953125 C 3.25 -5.722656 3.15625 -5.46875 3.09375 -5.1875 C 3.039062 -4.988281 3.015625 -4.785156 3.015625 -4.578125 L 3.015625 0 L 0.53125 0 L 0.53125 -9.1875 L 3.015625 -9.1875 L 3.015625 -8.21875 C 3.597656 -8.851562 4.347656 -9.171875 5.265625 -9.171875 C 6.597656 -9.191406 7.679688 -8.675781 8.515625 -7.625 L 9.25 -8.3125 C 9.945312 -8.882812 10.769531 -9.171875 11.71875 -9.171875 Z M 11.71875 -9.171875 "/></g></g></g><g fill="#ffffff" fill-opacity="1"><g transform="translate(214.993546, 266.76067)"><g><path d="M 5.296875 -9.15625 C 6.546875 -9.164062 7.625 -8.722656 8.53125 -7.828125 C 9.425781 -6.941406 9.878906 -5.863281 9.890625 -4.59375 C 9.898438 -3.34375 9.460938 -2.269531 8.578125 -1.375 C 7.691406 -0.46875 6.613281 -0.0078125 5.34375 0 C 4.3125 0 3.535156 -0.328125 3.015625 -0.984375 L 3.015625 3.40625 L 0.53125 3.40625 L 0.53125 -9.125 L 3.015625 -9.125 L 3.015625 -8.171875 C 3.503906 -8.796875 4.265625 -9.125 5.296875 -9.15625 Z M 6.921875 -2.984375 C 7.378906 -3.429688 7.59375 -3.960938 7.5625 -4.578125 C 7.5625 -5.210938 7.34375 -5.75 6.90625 -6.1875 C 6.457031 -6.613281 5.925781 -6.828125 5.3125 -6.828125 C 4.6875 -6.828125 4.15625 -6.609375 3.71875 -6.171875 C 3.28125 -5.703125 3.0625 -5.164062 3.0625 -4.5625 C 3.082031 -3.925781 3.304688 -3.394531 3.734375 -2.96875 C 4.171875 -2.53125 4.703125 -2.3125 5.328125 -2.3125 C 5.960938 -2.332031 6.492188 -2.554688 6.921875 -2.984375 Z M 6.921875 -2.984375 "/></g></g></g><g fill="#ffffff" fill-opacity="1"><g transform="translate(225.172155, 266.76067)"><g><path d="M 7.109375 -9.1875 L 9.59375 -9.1875 L 9.59375 0 L 7.109375 0 L 7.109375 -1.03125 C 6.597656 -0.363281 5.828125 -0.03125 4.796875 -0.03125 C 3.535156 -0.0195312 2.457031 -0.457031 1.5625 -1.34375 C 0.664062 -2.238281 0.210938 -3.316406 0.203125 -4.578125 C 0.179688 -5.835938 0.617188 -6.914062 1.515625 -7.8125 C 2.398438 -8.71875 3.476562 -9.175781 4.75 -9.1875 C 5.789062 -9.1875 6.578125 -8.847656 7.109375 -8.171875 Z M 6.359375 -3.015625 C 6.796875 -3.453125 7.015625 -3.988281 7.015625 -4.625 C 7.015625 -5.257812 6.789062 -5.789062 6.34375 -6.21875 C 5.894531 -6.664062 5.367188 -6.878906 4.765625 -6.859375 C 4.128906 -6.859375 3.59375 -6.640625 3.15625 -6.203125 C 2.71875 -5.765625 2.5 -5.226562 2.5 -4.59375 C 2.5 -3.976562 2.726562 -3.445312 3.1875 -3 C 3.625 -2.5625 4.15625 -2.34375 4.78125 -2.34375 C 5.414062 -2.363281 5.941406 -2.585938 6.359375 -3.015625 Z M 6.359375 -3.015625 "/></g></g></g><g fill="#ffffff" fill-opacity="1"><g transform="translate(235.297482, 266.76067)"><g><path d="M 4.234375 0 C 3.609375 0 3.066406 -0.09375 2.609375 -0.28125 C 2.242188 -0.414062 1.863281 -0.660156 1.46875 -1.015625 C 0.800781 -1.640625 0.492188 -2.429688 0.546875 -3.390625 L 0.546875 -3.59375 L 2.546875 -3.546875 L 2.703125 -3.546875 L 2.703125 -3.40625 C 2.710938 -3.113281 2.773438 -2.875 2.890625 -2.6875 C 3.097656 -2.34375 3.546875 -2.171875 4.234375 -2.171875 C 4.796875 -2.171875 5.203125 -2.234375 5.453125 -2.359375 C 5.585938 -2.421875 5.675781 -2.5 5.71875 -2.59375 C 5.738281 -2.625 5.75 -2.660156 5.75 -2.703125 L 5.78125 -2.796875 C 5.78125 -3.035156 5.582031 -3.234375 5.1875 -3.390625 C 5.03125 -3.453125 4.851562 -3.5 4.65625 -3.53125 C 4.5 -3.570312 4.328125 -3.601562 4.140625 -3.625 C 3.429688 -3.695312 2.835938 -3.835938 2.359375 -4.046875 C 1.890625 -4.234375 1.5 -4.492188 1.1875 -4.828125 C 0.757812 -5.316406 0.546875 -5.875 0.546875 -6.5 C 0.546875 -6.894531 0.617188 -7.253906 0.765625 -7.578125 C 0.867188 -7.847656 1.007812 -8.082031 1.1875 -8.28125 C 1.832031 -9.007812 2.859375 -9.375 4.265625 -9.375 C 5.109375 -9.375 5.816406 -9.207031 6.390625 -8.875 C 6.847656 -8.632812 7.210938 -8.300781 7.484375 -7.875 C 7.691406 -7.550781 7.835938 -7.175781 7.921875 -6.75 C 7.941406 -6.601562 7.960938 -6.46875 7.984375 -6.34375 L 7.984375 -5.96875 L 5.828125 -5.96875 L 5.828125 -6.234375 C 5.816406 -6.285156 5.8125 -6.332031 5.8125 -6.375 C 5.769531 -6.507812 5.722656 -6.617188 5.671875 -6.703125 C 5.410156 -7.054688 4.941406 -7.234375 4.265625 -7.234375 C 3.265625 -7.234375 2.765625 -7.023438 2.765625 -6.609375 C 2.765625 -6.390625 2.882812 -6.21875 3.125 -6.09375 C 3.375 -5.9375 3.796875 -5.820312 4.390625 -5.75 C 5.753906 -5.613281 6.742188 -5.179688 7.359375 -4.453125 C 7.773438 -3.972656 7.984375 -3.421875 7.984375 -2.796875 L 7.984375 -2.671875 L 7.953125 -2.5 C 7.953125 -2.351562 7.9375 -2.210938 7.90625 -2.078125 C 7.8125 -1.703125 7.632812 -1.363281 7.375 -1.0625 C 7.070312 -0.707031 6.65625 -0.441406 6.125 -0.265625 C 5.59375 -0.0859375 4.960938 0 4.234375 0 Z M 4.234375 0 "/></g></g></g><g fill="#ffffff" fill-opacity="1"><g transform="translate(243.80631, 266.76067)"><g><path d="M 4.234375 0 C 3.609375 0 3.066406 -0.09375 2.609375 -0.28125 C 2.242188 -0.414062 1.863281 -0.660156 1.46875 -1.015625 C 0.800781 -1.640625 0.492188 -2.429688 0.546875 -3.390625 L 0.546875 -3.59375 L 2.546875 -3.546875 L 2.703125 -3.546875 L 2.703125 -3.40625 C 2.710938 -3.113281 2.773438 -2.875 2.890625 -2.6875 C 3.097656 -2.34375 3.546875 -2.171875 4.234375 -2.171875 C 4.796875 -2.171875 5.203125 -2.234375 5.453125 -2.359375 C 5.585938 -2.421875 5.675781 -2.5 5.71875 -2.59375 C 5.738281 -2.625 5.75 -2.660156 5.75 -2.703125 L 5.78125 -2.796875 C 5.78125 -3.035156 5.582031 -3.234375 5.1875 -3.390625 C 5.03125 -3.453125 4.851562 -3.5 4.65625 -3.53125 C 4.5 -3.570312 4.328125 -3.601562 4.140625 -3.625 C 3.429688 -3.695312 2.835938 -3.835938 2.359375 -4.046875 C 1.890625 -4.234375 1.5 -4.492188 1.1875 -4.828125 C 0.757812 -5.316406 0.546875 -5.875 0.546875 -6.5 C 0.546875 -6.894531 0.617188 -7.253906 0.765625 -7.578125 C 0.867188 -7.847656 1.007812 -8.082031 1.1875 -8.28125 C 1.832031 -9.007812 2.859375 -9.375 4.265625 -9.375 C 5.109375 -9.375 5.816406 -9.207031 6.390625 -8.875 C 6.847656 -8.632812 7.210938 -8.300781 7.484375 -7.875 C 7.691406 -7.550781 7.835938 -7.175781 7.921875 -6.75 C 7.941406 -6.601562 7.960938 -6.46875 7.984375 -6.34375 L 7.984375 -5.96875 L 5.828125 -5.96875 L 5.828125 -6.234375 C 5.816406 -6.285156 5.8125 -6.332031 5.8125 -6.375 C 5.769531 -6.507812 5.722656 -6.617188 5.671875 -6.703125 C 5.410156 -7.054688 4.941406 -7.234375 4.265625 -7.234375 C 3.265625 -7.234375 2.765625 -7.023438 2.765625 -6.609375 C 2.765625 -6.390625 2.882812 -6.21875 3.125 -6.09375 C 3.375 -5.9375 3.796875 -5.820312 4.390625 -5.75 C 5.753906 -5.613281 6.742188 -5.179688 7.359375 -4.453125 C 7.773438 -3.972656 7.984375 -3.421875 7.984375 -2.796875 L 7.984375 -2.671875 L 7.953125 -2.5 C 7.953125 -2.351562 7.9375 -2.210938 7.90625 -2.078125 C 7.8125 -1.703125 7.632812 -1.363281 7.375 -1.0625 C 7.070312 -0.707031 6.65625 -0.441406 6.125 -0.265625 C 5.59375 -0.0859375 4.960938 0 4.234375 0 Z M 4.234375 0 "/></g></g></g></svg>