<?xml version="1.0" encoding="utf-8"?>
<!-- Generator: Adobe Illustrator 27.5.0, SVG Export Plug-In . SVG Version: 6.00 Build 0)  -->
<svg version="1.1" xmlns="http://www.w3.org/2000/svg" xmlns:xlink="http://www.w3.org/1999/xlink" x="0px" y="0px"
	 viewBox="0 0 500 500" style="enable-background:new 0 0 500 500;" xml:space="preserve">
<g id="Background_Complete">
	<g>
		<rect y="382.398" style="fill:#EBEBEB;" width="500" height="0.25"/>
		<rect x="416.779" y="398.494" style="fill:#EBEBEB;" width="33.122" height="0.25"/>
		<rect x="322.527" y="401.208" style="fill:#EBEBEB;" width="8.693" height="0.25"/>
		<rect x="396.586" y="389.208" style="fill:#EBEBEB;" width="19.192" height="0.25"/>
		<rect x="52.459" y="390.888" style="fill:#EBEBEB;" width="43.193" height="0.25"/>
		<rect x="104.556" y="390.888" style="fill:#EBEBEB;" width="6.333" height="0.25"/>
		<rect x="131.471" y="395.111" style="fill:#EBEBEB;" width="93.676" height="0.25"/>
		<path style="fill:#EBEBEB;" d="M237.014,337.8H43.915c-3.147,0-5.708-2.561-5.708-5.708V60.66c0-3.147,2.561-5.708,5.708-5.708
			h193.099c3.146,0,5.707,2.561,5.707,5.708v271.432C242.721,335.239,240.16,337.8,237.014,337.8z M43.915,55.203
			c-3.01,0-5.458,2.448-5.458,5.458v271.432c0,3.01,2.448,5.458,5.458,5.458h193.099c3.009,0,5.457-2.448,5.457-5.458V60.66
			c0-3.009-2.448-5.458-5.457-5.458H43.915z"/>
		<path style="fill:#EBEBEB;" d="M453.31,337.8H260.212c-3.147,0-5.707-2.561-5.707-5.708V60.66c0-3.147,2.561-5.708,5.707-5.708
			H453.31c3.148,0,5.708,2.561,5.708,5.708v271.432C459.019,335.239,456.458,337.8,453.31,337.8z M260.212,55.203
			c-3.009,0-5.457,2.448-5.457,5.458v271.432c0,3.01,2.448,5.458,5.457,5.458H453.31c3.01,0,5.458-2.448,5.458-5.458V60.66
			c0-3.009-2.448-5.458-5.458-5.458H260.212z"/>
	</g>
	<g>
		<path style="fill:#F5F5F5;" d="M66.238,382.415c11.149-17.659,64.689-101.348,74.135-95.231
			c10.556,6.835,17.072,12.882,17.072,12.882s47.866-109.124,59.32-107.598c11.454,1.525,71.308,129.995,71.308,129.995
			s48.07-56.594,56.027-54.593c7.07,1.778,76.532,94.01,91.926,114.545L66.238,382.415z"/>
		<path style="fill:#F0F0F0;" d="M173.275,123.522c0-2.555,2.071-4.626,4.626-4.626c0.462,0,0.907,0.07,1.328,0.196
			c-0.067-0.464-0.104-0.938-0.104-1.421c0-5.411,4.386-9.797,9.797-9.797c0.617,0,1.219,0.06,1.805,0.169
			c1.506-2.464,4.213-4.115,7.312-4.115c4.691,0,8.496,3.769,8.566,8.444c0.048-0.001,0.094-0.007,0.143-0.007
			c4.359,0,7.892,3.533,7.892,7.892c0,4.359-3.533,7.892-7.892,7.892h-28.983l0.006-0.007
			C175.277,128.073,173.275,126.034,173.275,123.522z"/>
		<path style="fill:#F0F0F0;" d="M278.686,150.672c0-2.555,2.072-4.626,4.626-4.626c0.462,0,0.907,0.07,1.328,0.196
			c-0.067-0.464-0.104-0.938-0.104-1.421c0-5.411,4.386-9.797,9.797-9.797c0.617,0,1.219,0.06,1.805,0.169
			c1.506-2.464,4.213-4.115,7.312-4.115c4.691,0,8.496,3.769,8.566,8.444c0.048-0.001,0.094-0.007,0.143-0.007
			c4.359,0,7.892,3.533,7.892,7.892c0,4.359-3.533,7.892-7.892,7.892h-28.983l0.006-0.007
			C280.688,155.223,278.686,153.183,278.686,150.672z"/>
		<path style="fill:#F0F0F0;" d="M439.093,126.117c0-2.555-2.071-4.626-4.626-4.626c-0.462,0-0.907,0.07-1.328,0.196
			c0.068-0.464,0.104-0.938,0.104-1.42c0-5.411-4.386-9.797-9.797-9.797c-0.617,0-1.219,0.06-1.805,0.169
			c-1.506-2.464-4.213-4.115-7.312-4.115c-4.691,0-8.496,3.769-8.566,8.444c-0.048-0.001-0.095-0.007-0.143-0.007
			c-4.359,0-7.892,3.533-7.892,7.892c0,4.359,3.533,7.892,7.892,7.892h28.983l-0.006-0.007
			C437.091,130.667,439.093,128.628,439.093,126.117z"/>
		<path style="fill:#F0F0F0;" d="M74.579,115.834c0-1.589,1.288-2.876,2.876-2.876c0.287,0,0.564,0.043,0.826,0.122
			c-0.042-0.288-0.064-0.583-0.064-0.883c0-3.364,2.727-6.091,6.091-6.091c0.383,0,0.758,0.037,1.122,0.105
			c0.936-1.532,2.619-2.558,4.546-2.558c2.917,0,5.282,2.343,5.326,5.249c0.03,0,0.059-0.005,0.089-0.005
			c2.71,0,4.906,2.197,4.906,4.907c0,2.71-2.197,4.907-4.906,4.907H77.371l0.004-0.004
			C75.824,118.663,74.579,117.395,74.579,115.834z"/>
		<path style="fill:#F0F0F0;" d="M297.263,96.106c0-1.589-1.288-2.876-2.876-2.876c-0.287,0-0.564,0.043-0.826,0.122
			c0.042-0.288,0.065-0.583,0.065-0.883c0-3.364-2.727-6.091-6.091-6.091c-0.384,0-0.758,0.037-1.122,0.105
			c-0.936-1.532-2.619-2.558-4.546-2.558c-2.917,0-5.282,2.343-5.326,5.249c-0.03,0-0.059-0.005-0.089-0.005
			c-2.71,0-4.906,2.197-4.906,4.907s2.197,4.907,4.906,4.907h18.019l-0.004-0.004C296.018,98.935,297.263,97.667,297.263,96.106z"/>
		<g>
			<g>
				<path style="fill:#E6E6E6;" d="M374.089,376.098c0,0,5.246-81.515,32.185-187.673l-5.466-4.126
					c0,0-23.624,38.356-47.322,186.977L374.089,376.098z"/>
			</g>
			<g>
				<path style="fill:#E0E0E0;" d="M413.215,163.704c12.67-7.054,29.668,6.857,30.698,26.748c0,0-1.993-1.439-5.363-3.04
					c-0.579-5.026-1.165-9.482-1.165-9.482v8.949c-1.036-0.458-2.171-0.915-3.404-1.348l-0.49-4.852l-0.718,4.444
					c-1.586-0.507-3.309-0.952-5.135-1.297l-1.248-14.143l-2.164,13.652c-1.729-0.173-3.529-0.235-5.386-0.15l-0.696-9.613
					l-0.713,9.7c-1.507,0.129-3.048,0.37-4.611,0.719l-0.631-14.308c0,0-0.527,7.982-1.107,14.74
					c-3.977,1.108-8.083,3.011-12.179,6.029v-1.756C398.901,188.696,401.65,170.141,413.215,163.704z"/>
				<path style="fill:#E0E0E0;" d="M396.956,156.16c-8.822-11.509-29.949-5.501-38.802,12.341c0,0,2.401-0.528,6.13-0.658
					c2.529-4.381,4.839-8.237,4.839-8.237l-3.557,8.211c1.132-0.008,2.356,0.023,3.659,0.117l2.379-4.257l-1.107,4.364
					c1.656,0.166,3.415,0.441,5.227,0.852l6.767-12.482l-3.441,13.387c1.655,0.529,3.331,1.187,5.002,2.004l4.46-8.544l-3.202,9.184
					c1.331,0.718,2.65,1.551,3.945,2.493l6.267-12.878c0,0-2.689,7.534-4.844,13.965c3.209,2.598,6.22,5.976,8.779,10.374
					l0.698-1.611C400.155,184.783,405.008,166.665,396.956,156.16z"/>
				<path style="fill:#E0E0E0;" d="M385.844,181.137c10.308-8.705,16.951,0,16.951,0c-3.684,0.678-7.076,2.759-10.102,5.508
					l-1.18-1.79v2.912c-0.727,0.724-1.429,1.482-2.108,2.266l-1.844-5.178l0.45,6.862c-0.98,1.237-1.901,2.51-2.759,3.785
					l-0.612-5.049l-0.403,6.603c-0.909,1.431-1.736,2.837-2.472,4.167l-0.389-9.205l-0.991,11.797
					c-1.804,3.531-2.789,6.033-2.789,6.033S375.536,189.841,385.844,181.137z"/>
				<path style="fill:#E0E0E0;" d="M410.24,205.218l-2.073,1.002c-0.181-1.55-0.399-3.182-0.664-4.838l1.534-2.378l-1.777,0.928
					c-0.097-0.551-0.199-1.101-0.307-1.649l2.084-4.726l-2.734,1.745c-1.085-4.473-2.596-8.45-4.698-10.448
					c0,0,21.577,8.652,7.375,31.559c0,0-0.127-3.799-0.658-8.81L410.24,205.218z"/>
				<path style="fill:#E0E0E0;" d="M389.927,184.174l-3.052-6.907l0.952,7.033c-0.355,0.033-0.715,0.072-1.082,0.117l-4.165-6.03
					l0.654,6.644c-1.499,0.336-3.072,0.779-4.72,1.363c-1.669,0.591-3.324,1.292-4.947,2.063l-1.81-5.982l0.568,6.59
					c-1.581,0.795-3.124,1.652-4.612,2.542l-0.739-5.213l-0.319,5.855c-1.825,1.128-3.557,2.292-5.156,3.432l0.809-9.287
					l-2.097,10.222c-1.642,1.209-3.118,2.368-4.383,3.402l0.295-6.461l-2.222,8.072c-1.825,1.564-2.875,2.574-2.875,2.574
					c2.52-22.518,11.912-30.855,26.572-32.229c14.66-1.374,24.007,14.42,24.007,14.42S397.31,183.969,389.927,184.174z"/>
				<path style="fill:#E0E0E0;" d="M430.169,214.823l-1.812,6.636c-0.514-1.717-1.227-3.926-2.148-6.392l1.898-9.766l-2.732,7.609
					c-1.356-3.385-3.067-7.087-5.149-10.579l2.555-6.68l-3.71,4.827c-0.605-0.928-1.236-1.833-1.896-2.704l1.483-4.215l-2.068,3.463
					c-0.455-0.572-0.924-1.126-1.405-1.661l1.837-5.633l-2.618,4.795c-1.366-1.417-2.831-2.668-4.396-3.684l2.81-6.847
					c0,0-1.828,2.738-4.069,6.095c-2.195-1.203-4.573-1.944-7.145-2.041c0,0,4.855-6.68,13.102-8.513
					c8.247-1.832,24.51,13.997,14.661,45.596c0,0-0.177-0.749-0.534-2.03L430.169,214.823z"/>
				<path style="fill:#E0E0E0;" d="M421.407,151.415l1.079,4.178c-0.447-0.008-0.957,0.019-1.522,0.105l-1.275-5.429l0.712,5.531
					c-0.913,0.194-1.948,0.547-3.072,1.143l-1.764-7.339l0.775,7.915c-0.382,0.242-0.773,0.513-1.172,0.816l-2.089-6.919
					l1.415,7.455c-1.67,1.392-3.456,3.347-5.287,6.076v-9.923l-2.108,13.392c-1.841,3.329-3.698,7.5-5.496,12.722
					c0,0,1.19-35.964,10.124-39.4c8.934-3.436,12.828,14.202,12.828,14.202s-0.42-0.177-1.168-0.278L421.407,151.415z"/>
				<path style="fill:#E0E0E0;" d="M406.177,190.452l-1.263,6.749l-2.119-6.749l-3.894,4.882l-1.031-4.882l-4.295,3.105
					c0,0,1.122-8.641,3.997-12.42C400.447,177.357,407.984,180.702,406.177,190.452z"/>
			</g>
		</g>
		<g>
			<g>
				<path style="fill:#E6E6E6;" d="M132.174,378.474c0,0-5.246-81.515-32.185-187.673l5.466-4.126c0,0,23.624,38.356,47.322,186.977
					L132.174,378.474z"/>
			</g>
			<g>
				<path style="fill:#E0E0E0;" d="M93.048,166.079c-12.67-7.053-29.667,6.857-30.698,26.748c0,0,1.993-1.439,5.363-3.04
					c0.579-5.026,1.166-9.482,1.166-9.482v8.949c1.036-0.458,2.171-0.915,3.404-1.348l0.49-4.852l0.718,4.444
					c1.586-0.507,3.309-0.952,5.135-1.297l1.248-14.143l2.164,13.652c1.729-0.173,3.528-0.235,5.386-0.15l0.696-9.613l0.713,9.7
					c1.507,0.129,3.048,0.37,4.611,0.719l0.631-14.308c0,0,0.527,7.982,1.107,14.74c3.977,1.108,8.083,3.011,12.179,6.029v-1.756
					C107.361,191.071,104.612,172.517,93.048,166.079z"/>
				<path style="fill:#E0E0E0;" d="M109.307,158.535c8.822-11.509,29.949-5.501,38.801,12.341c0,0-2.401-0.528-6.13-0.658
					c-2.529-4.381-4.839-8.237-4.839-8.237l3.557,8.211c-1.132-0.008-2.356,0.023-3.659,0.117l-2.379-4.257l1.107,4.364
					c-1.656,0.166-3.415,0.441-5.227,0.852l-6.767-12.482l3.441,13.387c-1.655,0.529-3.331,1.187-5.002,2.004l-4.46-8.544
					l3.202,9.184c-1.331,0.718-2.65,1.551-3.946,2.493l-6.267-12.878c0,0,2.689,7.534,4.844,13.965
					c-3.209,2.598-6.22,5.976-8.779,10.374l-0.698-1.611C106.107,187.158,101.254,169.04,109.307,158.535z"/>
				<path style="fill:#E0E0E0;" d="M120.418,183.512c-10.308-8.705-16.951,0-16.951,0c3.684,0.678,7.076,2.759,10.102,5.508
					l1.18-1.79v2.912c0.727,0.724,1.429,1.482,2.108,2.266l1.844-5.178l-0.45,6.862c0.98,1.237,1.901,2.51,2.759,3.785l0.612-5.049
					l0.403,6.603c0.909,1.431,1.736,2.837,2.472,4.167l0.389-9.205l0.991,11.796c1.804,3.531,2.789,6.033,2.789,6.033
					S130.726,192.217,120.418,183.512z"/>
				<path style="fill:#E0E0E0;" d="M96.022,207.594l2.073,1.002c0.181-1.55,0.399-3.182,0.664-4.838l-1.534-2.378l1.777,0.928
					c0.097-0.551,0.2-1.101,0.307-1.649l-2.084-4.726l2.734,1.745c1.085-4.473,2.596-8.449,4.698-10.448
					c0,0-21.577,8.652-7.375,31.559c0,0,0.127-3.799,0.658-8.81L96.022,207.594z"/>
				<path style="fill:#E0E0E0;" d="M116.336,186.55l3.052-6.907l-0.952,7.033c0.355,0.033,0.715,0.071,1.082,0.117l4.165-6.03
					l-0.653,6.644c1.499,0.336,3.072,0.779,4.719,1.363c1.669,0.591,3.324,1.292,4.947,2.063l1.81-5.982l-0.568,6.59
					c1.581,0.795,3.124,1.652,4.612,2.542l0.739-5.213l0.318,5.855c1.825,1.128,3.557,2.292,5.156,3.432l-0.809-9.287l2.097,10.222
					c1.642,1.209,3.118,2.368,4.383,3.402l-0.295-6.461l2.222,8.072c1.825,1.564,2.875,2.574,2.875,2.574
					c-2.52-22.518-11.912-30.855-26.572-32.229c-14.66-1.374-24.007,14.42-24.007,14.42S108.952,186.345,116.336,186.55z"/>
				<path style="fill:#E0E0E0;" d="M76.093,217.198l1.812,6.636c0.514-1.717,1.227-3.926,2.148-6.392l-1.898-9.766l2.732,7.609
					c1.356-3.385,3.067-7.088,5.149-10.579l-2.555-6.68l3.71,4.826c0.605-0.928,1.236-1.833,1.896-2.704l-1.483-4.215l2.068,3.463
					c0.455-0.572,0.924-1.126,1.405-1.661l-1.837-5.632l2.618,4.795c1.366-1.417,2.831-2.668,4.396-3.684l-2.81-6.847
					c0,0,1.828,2.738,4.069,6.095c2.195-1.203,4.573-1.944,7.145-2.041c0,0-4.855-6.68-13.102-8.513
					c-8.247-1.832-24.511,13.997-14.661,45.596c0,0,0.177-0.749,0.534-2.03L76.093,217.198z"/>
				<path style="fill:#E0E0E0;" d="M84.855,153.79l-1.079,4.178c0.447-0.008,0.957,0.019,1.522,0.105l1.275-5.429l-0.712,5.531
					c0.913,0.194,1.948,0.547,3.072,1.143l1.764-7.339l-0.775,7.915c0.382,0.242,0.773,0.513,1.172,0.816l2.089-6.919l-1.415,7.455
					c1.67,1.392,3.456,3.347,5.287,6.076v-9.923l2.108,13.392c1.841,3.329,3.698,7.5,5.496,12.722c0,0-1.19-35.964-10.124-39.4
					c-8.934-3.436-12.828,14.202-12.828,14.202s0.42-0.177,1.168-0.278L84.855,153.79z"/>
				<path style="fill:#E0E0E0;" d="M100.085,192.827l1.263,6.749l2.119-6.749l3.894,4.882l1.031-4.882l4.295,3.105
					c0,0-1.122-8.641-3.997-12.42C105.815,179.732,98.279,183.077,100.085,192.827z"/>
			</g>
		</g>
		<g>
			<g>
				<path style="fill:#E6E6E6;" d="M345.12,371.225c0,0,8.366-116.483-37.835-232.995l5.569-4.976c0,0,50.564,86.984,55.141,239.569
					L345.12,371.225z"/>
			</g>
			<g>
				<path style="fill:#E0E0E0;" d="M294.792,107.668c-14.433-8.035-33.796,7.812-34.97,30.47c0,0,2.271-1.64,6.109-3.463
					c0.66-5.725,1.328-10.801,1.328-10.801v10.194c1.18-0.521,2.473-1.043,3.878-1.535l0.558-5.527l0.818,5.063
					c1.806-0.577,3.77-1.085,5.849-1.477l1.422-16.111l2.465,15.551c1.969-0.197,4.02-0.268,6.135-0.171l0.793-10.95l0.812,11.05
					c1.717,0.147,3.472,0.421,5.253,0.819l0.719-16.299c0,0,0.601,9.093,1.261,16.791c4.53,1.263,9.208,3.43,13.874,6.868v-2
					C311.097,136.138,307.966,115.002,294.792,107.668z"/>
				<path style="fill:#E0E0E0;" d="M313.313,99.075c10.05-13.11,34.116-6.267,44.201,14.058c0,0-2.736-0.602-6.982-0.749
					c-2.881-4.991-5.512-9.383-5.512-9.383l4.052,9.354c-1.29-0.009-2.684,0.027-4.168,0.133l-2.71-4.85l1.262,4.971
					c-1.887,0.189-3.89,0.503-5.954,0.97l-7.709-14.218l3.92,15.25c-1.885,0.602-3.795,1.352-5.698,2.282l-5.081-9.732l3.647,10.462
					c-1.516,0.818-3.019,1.767-4.495,2.84l-7.139-14.67c0,0,3.063,8.582,5.518,15.908c-3.655,2.96-7.086,6.808-10,11.817
					l-0.795-1.835C309.669,131.68,304.14,111.041,313.313,99.075z"/>
				<path style="fill:#E0E0E0;" d="M325.971,127.527c-11.742-9.916-19.31,0-19.31,0c4.197,0.772,8.061,3.143,11.507,6.274
					l1.344-2.039v3.317c0.828,0.824,1.628,1.689,2.401,2.581l2.1-5.898l-0.513,7.817c1.117,1.41,2.166,2.86,3.143,4.311l0.697-5.751
					l0.459,7.522c1.036,1.63,1.978,3.232,2.816,4.746l0.443-10.486l1.129,13.438c2.055,4.022,3.177,6.872,3.177,6.872
					S337.713,137.443,325.971,127.527z"/>
				<path style="fill:#E0E0E0;" d="M298.181,154.959l2.361,1.141c0.206-1.765,0.455-3.625,0.756-5.512l-1.747-2.708l2.024,1.057
					c0.11-0.628,0.227-1.254,0.35-1.879l-2.374-5.383l3.115,1.988c1.236-5.095,2.957-9.625,5.352-11.902
					c0,0-24.58,9.856-8.401,35.951c0,0,0.144-4.327,0.75-10.036L298.181,154.959z"/>
				<path style="fill:#E0E0E0;" d="M321.32,130.988l3.477-7.868l-1.085,8.012c0.404,0.037,0.815,0.081,1.232,0.133l4.745-6.869
					l-0.744,7.568c1.708,0.383,3.499,0.888,5.376,1.552c1.901,0.673,3.786,1.471,5.636,2.35l2.062-6.815l-0.647,7.507
					c1.801,0.906,3.559,1.882,5.254,2.895l0.842-5.938l0.363,6.67c2.079,1.285,4.052,2.611,5.873,3.91l-0.921-10.58l2.389,11.645
					c1.87,1.378,3.552,2.698,4.992,3.875l-0.336-7.36l2.531,9.195c2.079,1.781,3.275,2.932,3.275,2.932
					c-2.87-25.652-13.569-35.148-30.269-36.714c-16.7-1.566-27.348,16.427-27.348,16.427S312.909,130.754,321.32,130.988z"/>
				<path style="fill:#E0E0E0;" d="M275.479,165.9l2.064,7.559c0.586-1.956,1.398-4.472,2.447-7.282l-2.162-11.125l3.112,8.668
					c1.544-3.856,3.494-8.074,5.865-12.051l-2.91-7.61l4.227,5.498c0.689-1.057,1.408-2.088,2.16-3.081l-1.69-4.802l2.355,3.945
					c0.519-0.651,1.053-1.282,1.601-1.892l-2.092-6.416l2.982,5.462c1.557-1.614,3.225-3.039,5.008-4.196l-3.201-7.799
					c0,0,2.082,3.119,4.635,6.943c2.5-1.37,5.21-2.214,8.139-2.325c0,0-5.531-7.61-14.925-9.697
					c-9.394-2.088-27.921,15.944-16.701,51.941c0,0,0.201-0.853,0.609-2.312L275.479,165.9z"/>
				<path style="fill:#E0E0E0;" d="M285.46,93.67l-1.229,4.759c0.509-0.009,1.09,0.022,1.734,0.12l1.452-6.185l-0.811,6.301
					c1.04,0.221,2.219,0.623,3.499,1.301l2.009-8.36l-0.883,9.016c0.435,0.276,0.881,0.584,1.335,0.929l2.38-7.882l-1.612,8.493
					c1.902,1.586,3.937,3.813,6.022,6.921V97.779l2.402,15.255c2.098,3.792,4.212,8.544,6.261,14.493
					c0,0-1.356-40.968-11.533-44.882c-10.177-3.914-14.613,16.178-14.613,16.178s0.478-0.201,1.331-0.317L285.46,93.67z"/>
				<path style="fill:#E0E0E0;" d="M302.809,138.138l1.439,7.688l2.414-7.688l4.436,5.561l1.174-5.561l4.893,3.537
					c0,0-1.278-9.843-4.553-14.148S300.751,127.032,302.809,138.138z"/>
			</g>
		</g>
		<path style="fill:#E0E0E0;" d="M447.728,382.415c0,0-41.58-26.888-197.719-26.888c-156.139,0-197.516,26.888-197.516,26.888
			L447.728,382.415z"/>
	</g>
</g>
<g id="Background_Simple" style="display:none;">
	<g style="display:inline;">
		<path style="fill:#407BFF;" d="M239.689,81.327c106.138,1.14,97.702,105.299,121.703,145.366
			c24.001,40.066,63.259,36.861,54.481,99.407s-246.555,106.89-305.067,3.203C52.294,225.617,139.083,80.246,239.689,81.327z"/>
		<path style="opacity:0.9;fill:#FFFFFF;" d="M239.689,81.327c106.138,1.14,97.702,105.299,121.703,145.366
			c24.001,40.066,63.259,36.861,54.481,99.407s-246.555,106.89-305.067,3.203C52.294,225.617,139.083,80.246,239.689,81.327z"/>
	</g>
</g>
<g id="Shadow_1_">
	<ellipse id="_x3C_Path_x3E__359_" style="fill:#F5F5F5;" cx="250" cy="416.238" rx="193.889" ry="11.323"/>
</g>
<g id="Birds">
	<g>
		<g>
			<path style="fill:#407BFF;" d="M135.16,124.638c0,0,0.815-9.133,2.955-10.559c2.139-1.426,15.283-4.89,15.283-4.89
				s-5.196,14.085-8.355,15.703C141.884,126.509,135.16,124.638,135.16,124.638z"/>
			<path style="opacity:0.5;fill:#FFFFFF;" d="M153.399,109.19c0,0,0,0-0.008,0.008c-0.154,0.433-5.238,14.101-8.352,15.692
				c-1.669,0.858-4.342,0.734-6.482,0.433c-1.908-0.27-3.4-0.688-3.4-0.688s0.819-9.132,2.959-10.554
				c2.04-1.36,14.077-4.574,15.198-4.868c0.031-0.008,0.054-0.008,0.062-0.016C153.391,109.19,153.399,109.19,153.399,109.19z"/>
			<path style="opacity:0.2;enable-background:new    ;" d="M153.391,109.198c-0.154,0.433-5.238,14.101-8.352,15.692
				c-1.669,0.858-4.342,0.734-6.482,0.433c-3.006-2.009,3.353-4.211,4.296-4.929c1.066-0.811,0.355-1.422,0.046-1.931
				c-0.301-0.51,0.819-1.731,2.14-2.241c1.329-0.51,1.738-1.53,1.429-3.06c-0.286-1.429,6.042-3.662,6.846-3.948
				c0.031-0.008,0.054-0.008,0.062-0.016C153.384,109.198,153.384,109.198,153.391,109.198z"/>
		</g>
		<path style="fill:#407BFF;" d="M128.461,119.148c2.986-0.085,9.756,3.256,11.997,3.424c2.241,0.168,13.348-7.495,15.741-8.758
			c2.394-1.263,23.323-4.077,23.323-4.077s-13.898,14.226-23.323,14.633c0,0,6.98,1.945,9.016,1.426
			c8.1-2.063,19.638-1.91,19.638-1.91l-12.914,4.203l11.256,1.452c0,0-5.219,1.299-15.917,0.611c0,0-4.066,1.665-12.455,3.439
			c-9.399,1.987-15.161-1.982-17.021-3.486c-4.069-3.29-17.518-7.03-17.518-7.03l4.585-1.634
			C124.869,121.44,125.786,119.224,128.461,119.148z"/>
		<path style="opacity:0.6;fill:#FFFFFF;" d="M171.942,128.088l11.249,1.453c0,0-5.215,1.298-15.916,0.61
			c0,0-3.276,1.337-10.013,2.897c-0.765,0.178-1.584,0.355-2.441,0.541c-9.395,1.986-15.159-1.978-17.021-3.484
			c-1.646-1.337-4.837-2.743-8.051-3.948c-0.51-0.193-1.02-0.379-1.522-0.556h-0.008c-0.379-0.131-0.757-0.27-1.136-0.394
			c-0.842-0.294-1.661-0.556-2.41-0.796c-2.534-0.819-4.388-1.337-4.388-1.337l4.582-1.638c0,0,0.919-2.21,3.593-2.287
			c1.962-0.054,5.555,1.36,8.421,2.387c1.507,0.541,2.805,0.974,3.577,1.035c2.241,0.17,13.351-7.494,15.739-8.762
			c1.159-0.61,6.637-1.576,11.991-2.418c5.733-0.904,11.334-1.653,11.334-1.653s-9.627,9.851-18.296,13.39
			c-1.545,0.634-3.06,1.066-4.481,1.205c-0.008,0-0.008,0-0.016,0c-0.178,0.015-0.355,0.031-0.533,0.039
			c0,0,0.038,0.008,0.108,0.031c0.889,0.24,7.023,1.87,8.908,1.391c1.437-0.363,2.982-0.664,4.551-0.896
			c0.008-0.008,0.016-0.008,0.023-0.008c7.278-1.113,15.066-1.004,15.066-1.004L171.942,128.088z"/>
		<path style="opacity:0.2;enable-background:new    ;" d="M136.881,121.537c-1.437,0.016-3.322,0.178-3.987,0.896
			c-0.896,0.95-1.708,2.951-3.145,3.724c-0.51-0.193-1.02-0.379-1.522-0.556h-0.008c-0.379-0.131-0.757-0.27-1.136-0.394
			c-0.842-0.294-1.661-0.556-2.41-0.796c-0.193-1.321,0.193-2.974,0.193-2.974s0.919-2.21,3.593-2.287
			C130.421,119.095,134.014,120.509,136.881,121.537z"/>
		<path style="opacity:0.2;enable-background:new    ;" d="M179.522,109.739c0,0-9.627,9.851-18.296,13.39
			c-1.661,0.572-3.199,0.989-4.481,1.205c-0.008,0-0.008,0-0.016,0c-0.147,0.023-0.286,0.046-0.425,0.07
			c-7.015,1.089-7.827,0.015-7.827,0.015s2.372-0.688,2.604-0.688c0.224,0-0.997-0.765,0.533-1.352
			c1.53-0.595,1.298-1.321,1.298-1.321s4.203-1.453,4.357-1.908c0.155-0.464-0.533-1.221,1.375-1.607
			c1.908-0.379,0.077-1.375,3.052-2.441c2.982-1.074,2.217-1.684,2.217-1.684c2.596-0.688,3.786-1.406,4.273-2.024
			C173.92,110.488,179.522,109.739,179.522,109.739z"/>
		<path style="opacity:0.2;enable-background:new    ;" d="M171.942,128.088l11.249,1.453c0,0-5.215,1.298-15.916,0.61
			c0,0-3.276,1.337-10.013,2.897c-1.298-0.688,2.38-1.839,3.979-2.666c2.063-1.074,1.762-0.842,0.997-1.375
			c-0.765-0.541,0.077-0.688,2.442-1.229c2.372-0.533,1.831-1.066,3.284-2.171c0.317-0.24,0.974-0.487,1.8-0.711
			c0.008-0.008,0.016-0.008,0.023-0.008c7.278-1.113,15.066-1.004,15.066-1.004L171.942,128.088z"/>
		<polygon style="fill:#407BFF;" points="124.866,121.436 126.168,122.376 125.39,124.638 120.285,123.074 		"/>
	</g>
	<g>
		<g>
			<path style="fill:#407BFF;" d="M363.295,127.316c0,0,0.317-3.557,1.151-4.113s5.953-1.905,5.953-1.905s-2.024,5.486-3.254,6.116
				C365.914,128.045,363.295,127.316,363.295,127.316z"/>
			<path style="opacity:0.5;fill:#FFFFFF;" d="M370.399,121.299c0,0,0,0-0.003,0.003c-0.06,0.169-2.04,5.492-3.253,6.112
				c-0.65,0.334-1.691,0.286-2.525,0.169c-0.743-0.105-1.324-0.268-1.324-0.268s0.319-3.557,1.153-4.111
				c0.794-0.53,5.483-1.782,5.919-1.896c0.012-0.003,0.021-0.003,0.024-0.006C370.396,121.299,370.399,121.299,370.399,121.299z"/>
			<path style="opacity:0.2;enable-background:new    ;" d="M370.396,121.302c-0.06,0.169-2.04,5.492-3.253,6.112
				c-0.65,0.334-1.691,0.286-2.525,0.169c-1.171-0.782,1.306-1.64,1.673-1.92c0.415-0.316,0.138-0.554,0.018-0.752
				c-0.117-0.199,0.319-0.674,0.834-0.873c0.518-0.199,0.677-0.596,0.557-1.192c-0.111-0.557,2.353-1.426,2.666-1.538
				c0.012-0.003,0.021-0.003,0.024-0.006C370.393,121.302,370.393,121.302,370.396,121.302z"/>
		</g>
		<path style="fill:#407BFF;" d="M360.686,125.178c1.163-0.033,3.8,1.268,4.673,1.334c0.873,0.065,5.199-2.919,6.131-3.411
			c0.932-0.492,9.084-1.588,9.084-1.588s-5.413,5.541-9.084,5.7c0,0,2.719,0.758,3.512,0.556c3.155-0.804,7.649-0.744,7.649-0.744
			l-5.03,1.637l4.384,0.566c0,0-2.033,0.506-6.2,0.238c0,0-1.584,0.648-4.851,1.339c-3.661,0.774-5.905-0.772-6.63-1.358
			c-1.585-1.281-6.823-2.738-6.823-2.738l1.786-0.637C359.287,126.071,359.644,125.207,360.686,125.178z"/>
		<path style="opacity:0.6;fill:#FFFFFF;" d="M377.622,128.66l4.382,0.566c0,0-2.031,0.506-6.199,0.238c0,0-1.276,0.521-3.9,1.128
			c-0.298,0.069-0.617,0.139-0.951,0.211c-3.659,0.773-5.904-0.77-6.63-1.357c-0.641-0.521-1.884-1.068-3.136-1.538
			c-0.199-0.075-0.397-0.147-0.593-0.217h-0.003c-0.148-0.051-0.295-0.105-0.442-0.154c-0.328-0.114-0.647-0.217-0.939-0.31
			c-0.987-0.319-1.709-0.521-1.709-0.521l1.784-0.638c0,0,0.358-0.861,1.399-0.891c0.764-0.021,2.164,0.53,3.28,0.93
			c0.587,0.211,1.092,0.379,1.393,0.403c0.873,0.066,5.2-2.919,6.13-3.413c0.451-0.238,2.585-0.614,4.671-0.942
			c2.233-0.352,4.415-0.644,4.415-0.644s-3.75,3.837-7.126,5.215c-0.602,0.247-1.192,0.415-1.746,0.469c-0.003,0-0.003,0-0.006,0
			c-0.069,0.006-0.138,0.012-0.208,0.015c0,0,0.015,0.003,0.042,0.012c0.346,0.093,2.735,0.728,3.47,0.542
			c0.56-0.141,1.162-0.259,1.772-0.349c0.003-0.003,0.006-0.003,0.009-0.003c2.835-0.433,5.868-0.391,5.868-0.391L377.622,128.66z"
			/>
		<path style="opacity:0.2;enable-background:new    ;" d="M363.965,126.108c-0.56,0.006-1.294,0.069-1.553,0.349
			c-0.349,0.37-0.665,1.15-1.225,1.451c-0.199-0.075-0.397-0.147-0.593-0.217h-0.003c-0.148-0.051-0.295-0.105-0.442-0.154
			c-0.328-0.114-0.647-0.217-0.939-0.31c-0.075-0.515,0.075-1.159,0.075-1.159s0.358-0.861,1.399-0.891
			C361.45,125.157,362.849,125.708,363.965,126.108z"/>
		<path style="opacity:0.2;enable-background:new    ;" d="M380.574,121.513c0,0-3.75,3.837-7.126,5.215
			c-0.647,0.223-1.246,0.385-1.746,0.469c-0.003,0-0.003,0-0.006,0c-0.057,0.009-0.111,0.018-0.165,0.027
			c-2.732,0.424-3.048,0.006-3.048,0.006s0.924-0.268,1.014-0.268c0.087,0-0.388-0.298,0.208-0.527
			c0.596-0.232,0.506-0.515,0.506-0.515s1.637-0.566,1.697-0.743c0.06-0.181-0.208-0.476,0.536-0.626
			c0.743-0.147,0.03-0.536,1.189-0.951c1.162-0.418,0.864-0.656,0.864-0.656c1.011-0.268,1.475-0.548,1.664-0.788
			C378.392,121.805,380.574,121.513,380.574,121.513z"/>
		<path style="opacity:0.2;enable-background:new    ;" d="M377.622,128.66l4.382,0.566c0,0-2.031,0.506-6.199,0.238
			c0,0-1.276,0.521-3.9,1.128c-0.505-0.268,0.927-0.716,1.55-1.038c0.803-0.418,0.686-0.328,0.388-0.536
			c-0.298-0.211,0.03-0.268,0.951-0.479c0.924-0.208,0.713-0.415,1.279-0.846c0.123-0.093,0.379-0.19,0.701-0.277
			c0.003-0.003,0.006-0.003,0.009-0.003c2.835-0.433,5.868-0.391,5.868-0.391L377.622,128.66z"/>
		<polygon style="fill:#407BFF;" points="359.286,126.069 359.793,126.435 359.49,127.316 357.501,126.707 		"/>
	</g>
	<g>
		<g>
			<g>
				<path style="fill:#407BFF;" d="M226.668,166.347c2.116-1.315,10.804,8.045,14.918,9.222c0,0-4.507,1.717-9.042,0.123
					C228.01,174.098,224.434,167.735,226.668,166.347z"/>
				<path style="opacity:0.4;fill:#FFFFFF;" d="M241.587,175.572c0,0-4.509,1.713-9.042,0.121c-4.533-1.592-8.112-7.957-5.877-9.343
					c0.498-0.314,1.368-0.027,2.456,0.606C232.633,168.997,238.445,174.673,241.587,175.572z"/>
			</g>
			<path style="opacity:0.2;enable-background:new    ;" d="M241.587,175.572c0,0-3.71,0.4-4.224-0.16
				c-0.518-0.561-1.044-0.779-2.079-0.814c-1.031-0.035-1.439-0.522-1.259-1.563c0.176-1.042-1.29-0.483-2.166-0.832
				c-0.877-0.349,0.099-0.661,0.121-1.389c0.016-0.721-1.757-0.819-1.859-1.408c-0.106-0.59,0.592-0.45,0.212-1.052
				c-0.385-0.603-1.665-0.826-1.211-1.398C232.633,168.997,238.445,174.673,241.587,175.572z"/>
		</g>
		<path style="fill:#407BFF;" d="M219.815,164.544c2.13-0.466,7.439,1.012,9.069,0.828c1.461-0.165,11.534-0.846,11.534-0.846
			s5.27,0.448,6.66-0.2c5.529-2.578,13.826-4.034,13.826-4.034l-8.692,4.766l8.27-0.485c0,0-3.567,1.64-11.333,2.597
			c0,0-2.69,1.746-8.467,4.156c-6.472,2.7-11.143,0.635-12.681-0.191c-3.365-1.807-13.518-2.666-13.518-2.666l3.067-1.794
			C217.55,166.675,217.908,164.962,219.815,164.544z"/>
		<path style="opacity:0.6;fill:#FFFFFF;" d="M252.214,165.063l8.27-0.49c0,0-3.57,1.64-11.34,2.6c0,0-0.13,0.09-0.41,0.25
			c-0.83,0.49-2.92,1.66-6.38,3.18c-0.52,0.24-1.08,0.47-1.67,0.72c-2.44,1.02-4.63,1.36-6.49,1.35c-3.06-0.03-5.23-1.03-6.19-1.54
			c-1.37-0.73-3.84-1.31-6.31-1.74c-0.4-0.07-0.79-0.13-1.17-0.19h-0.01c-0.29-0.04-0.58-0.09-0.86-0.13
			c-0.65-0.09-1.27-0.17-1.84-0.24c-1.93-0.24-3.33-0.36-3.33-0.36l3.06-1.8c0,0,0.36-1.71,2.27-2.13c1.4-0.3,4.17,0.22,6.36,0.57
			c1.16,0.19,2.15,0.32,2.71,0.26c1.63-0.18,11.66-0.87,11.53-0.84c0,0,0.03,0,0.08,0c0.67,0.05,5.3,0.39,6.58-0.21
			c0.98-0.45,2.05-0.88,3.14-1.26c0.01,0,0.01-0.01,0.02-0.01c5.07-1.78,10.67-2.76,10.67-2.76L252.214,165.063z"/>
		<path style="opacity:0.2;enable-background:new    ;" d="M226.178,165.115c-1.029,0.206-2.359,0.578-2.738,1.184
			c-0.514,0.803-0.824,2.348-1.75,3.098c-0.392-0.069-0.783-0.133-1.167-0.193l-0.005,0.001c-0.29-0.043-0.58-0.091-0.868-0.129
			c-0.644-0.096-1.267-0.174-1.837-0.244c-0.318-0.921-0.265-2.16-0.265-2.16s0.36-1.71,2.267-2.128
			C221.214,164.24,223.983,164.767,226.178,165.115z"/>
		<path style="opacity:0.2;enable-background:new    ;" d="M252.214,165.059l8.265-0.484c0,0-3.564,1.638-11.333,2.597
			c0,0-2.168,1.403-6.789,3.436c-1.024-0.317,1.457-1.642,2.492-2.451c1.334-1.05,1.149-0.843,0.528-1.122
			c-0.622-0.284-0.038-0.504,1.585-1.212c1.629-0.704,1.169-1.013,2.061-2.003c0.195-0.215,0.632-0.481,1.195-0.754
			c0.004-0.007,0.01-0.008,0.016-0.009c5.069-1.785,10.67-2.764,10.67-2.764L252.214,165.059z"/>
		<polygon style="fill:#407BFF;" points="217.548,166.673 218.609,167.171 218.357,168.898 214.484,168.469 		"/>
		<path style="fill:#FFFFFF;" d="M240.668,164.464"/>
		<path style="opacity:0.3;enable-background:new    ;" d="M248.734,167.423c-0.83,0.49-2.92,1.66-6.38,3.18
			c-0.52,0.24-1.08,0.47-1.67,0.72c-2.44,1.02-4.63,1.36-6.49,1.35c-2.02-2.08-2.96-4.21-2.96-4.21s0.59-1.78,3.69-2.89
			C236.964,164.853,244.084,166.323,248.734,167.423z"/>
		<g>
			<g>
				<path style="fill:#407BFF;" d="M231.296,165.444c3.871-2.019,25.978,6.814,35.077,7.22c0,0-8.703,3.043-18.857,2.252
					C237.362,174.125,227.208,167.576,231.296,165.444z"/>
				<path style="opacity:0.6;fill:#FFFFFF;" d="M266.376,172.666c0,0-8.71,3.04-18.86,2.25c-10.15-0.79-20.31-7.34-16.22-9.47
					c0.91-0.48,2.85-0.35,5.39,0.13C244.886,167.126,259.427,172.356,266.376,172.666z"/>
			</g>
			<path style="opacity:0.2;enable-background:new    ;" d="M266.376,172.666c0,0-7.59,1.33-8.9,0.8c-1.32-0.53-2.51-0.66-4.69-0.46
				c-2.17,0.2-3.23-0.27-3.29-1.52c-0.07-1.25-2.9-0.26-4.88-0.46c-1.98-0.2-0.07-0.79-0.33-1.64c-0.27-0.84-4.02-0.54-4.48-1.2
				c-0.47-0.66,1.05-0.66,0-1.27c-1.06-0.61-3.83-0.57-3.12-1.34C244.886,167.126,259.427,172.356,266.376,172.666z"/>
		</g>
	</g>
</g>
<g id="Splash">
	<g>
		<path style="fill:#407BFF;" d="M70.473,418.35c0,0-5.143-13.615,7.516-13.142c12.659,0.473,15.033,6.615,11.077-6.097
			c-3.956-12.712-15.033-45.127-2.769-37.278c12.264,7.849,17.407,16.302,15.824-8.892c-1.582-25.194,15.429-42.36,24.923-37.931
			s-10.286,10.451-9.89,19.506c0.396,9.055,1.785,18.88,19.588,2.663c17.803-16.217,56.601-37.328,71.32-25.16
			c14.718,12.168-17.811,1.475-16.381,18.096c1.429,16.621,33.537,9.771,55.461,7.064c21.924-2.707,63.858,1.054,41.704,12.822
			c-22.154,11.768-25.757,16.06-4.571,15.101c21.186-0.959,60.258,0.645,43.774,14.971c-16.484,14.327-12.303,24.792,11.829,19.662
			c24.132-5.13,61.714,6.361,52.615,18.615H70.473z"/>
		<path style="opacity:0.4;fill:#FFFFFF;" d="M392.49,418.35H70.47c0,0-5.14-13.62,7.52-13.14c12.66,0.47,15.03,6.61,11.08-6.1
			c-3.96-12.71-15.04-45.13-2.77-37.28c12.26,7.85,17.4,16.3,15.82-8.89c-1.58-25.19,15.43-42.36,24.92-37.93
			c9.5,4.43-10.28,10.45-9.89,19.51c0.4,9.05,1.79,18.88,19.59,2.66c17.81-16.22,56.6-37.33,71.32-25.16
			c14.72,12.17-17.81,1.47-16.38,18.1c1.43,16.62,33.54,9.77,55.46,7.06c21.93-2.71,63.86,1.05,41.71,12.82
			c-22.16,11.77-25.76,16.06-4.57,15.1c21.18-0.96,60.25,0.65,43.77,14.97c-16.48,14.33-12.3,24.8,11.83,19.66
			C364.01,394.6,401.59,406.1,392.49,418.35z"/>
		<path style="opacity:0.2;enable-background:new    ;" d="M326.87,418.35H102.52c0,0-11.48-17.45,0-12.49
			c11.47,4.96,14.63,7.42,11.86-12.4c-2.76-19.82-4.03-38.44,5.11-36.45c9.14,1.99-3.52,13.86,6.76,14.25
			c10.29,0.4,12.05-21.27,25.61-32.39c13.56-11.12,35.52-24.26,28.3-11.76c-7.23,12.51-26.21,34.41-9.2,36.31
			c17.01,1.91,40.35-18.2,46.68-12.1c6.33,6.1-36.15,15.69-21.64,24.15c14.52,8.45,70.53-7.46,80.5-2.27
			c9.97,5.18-23.5,10.7-22,20.01c1.51,9.31,28.69,11.25,47.14,11.86C320.1,405.68,332.86,410.45,326.87,418.35z"/>
	</g>
</g>
<g id="Character">
	<g>
		<g>
			<g>
				<path style="fill:#EBB376;" d="M243.039,272.264c0,0-8.575,9.382-11.51,12.516c-2.935,3.135-6.336,5.129-12.743,4.963
					c-5.176-0.134-18.951-1.16-18.951-1.16v4.568c0,0,22.608,3.777,28.716,2.644c4.396-0.816,20.224-14.547,20.224-14.547
					L243.039,272.264z"/>
				<path style="opacity:0.2;enable-background:new    ;" d="M243.039,272.264c0,0-8.575,9.382-11.51,12.516
					c-2.935,3.135-6.336,5.129-12.743,4.963c-5.176-0.134-18.951-1.16-18.951-1.16v4.568c0,0,22.608,3.777,28.716,2.644
					c4.396-0.816,20.224-14.547,20.224-14.547L243.039,272.264z"/>
			</g>
			<g>
				<path style="fill:#EBB376;" d="M261.538,301.343c-2.475-0.214-12.052,8.169-12.052,8.169
					c-19.265,2.616-40.43,10.939-41.829,18.862c-1.338,7.58,9.505,21.477,21.101,57.327c0.984,4.234-4.171,7.284-8.416,8.472
					c-4.251,1.19-1.744,3.665,3.054,3.465c4.798-0.2,8.46-0.354,11.869-0.496c3.094-0.13,1.528-2.47,0.916-7.425
					c-1.921-33.568-9.496-53.755-9.496-53.755c25.896,0,41.087-1.149,43.054-15.771
					C271.734,305.361,266.194,301.746,261.538,301.343z"/>
				<path style="opacity:0.2;enable-background:new    ;" d="M261.538,301.343c-2.475-0.214-12.052,8.169-12.052,8.169
					c-19.265,2.616-40.43,10.939-41.829,18.862c-1.338,7.58,9.505,21.477,21.101,57.327c0.984,4.234-4.171,7.284-8.416,8.472
					c-4.251,1.19-1.744,3.665,3.054,3.465c4.798-0.2,8.46-0.354,11.869-0.496c3.094-0.13,1.528-2.47,0.916-7.425
					c-1.921-33.568-9.496-53.755-9.496-53.755c25.896,0,41.087-1.149,43.054-15.771
					C271.734,305.361,266.194,301.746,261.538,301.343z"/>
			</g>
			<g>
				<path style="fill:#407BFF;" d="M246.647,272.175c0,0-2.105-0.212-1.643-2.736c0.462-2.524,11.253-7.297,20.437-7.183
					c9.183,0.115,10.305,4.841,7.522,7.354S249.269,274.997,246.647,272.175z"/>
				<path style="opacity:0.4;fill:#FFFFFF;" d="M246.647,272.175c0,0-2.105-0.212-1.643-2.736
					c0.462-2.524,11.253-7.297,20.437-7.183c9.183,0.115,10.305,4.841,7.522,7.354S249.269,274.997,246.647,272.175z"/>
			</g>
			<path style="fill:#263238;" d="M231.526,252.081c0,0-3.117-6.808,2.678-11.504c5.796-4.696,7.307,0.18,13.589-2.258
				c6.282-2.438,3.949-7.647,10.324-5.763c6.375,1.884,6.708,6.76,11.362,2.438c4.655-4.322,8.201-5.32,12.302-1.441
				c4.101,3.879,5.763,4.876,8.423,2.106c2.66-2.771,7.32,0.997,7.32,0.997s-2.962-0.554-3.534,1.441
				c-0.572,1.995-0.794,7.98-4.673,7.98c0,0,0.554,1.884,2.327-0.111c0,0,2.216,8.069-5.652,7.803
				c-7.869-0.266-6.871,10.143-14.851,8.485c0,0,3.657,2.012,6.206-1.153c0,0-1.552,4.697-6.76,3.703s-14.217-3.929-17.249-1.575
				C250.307,265.583,229.591,270.941,231.526,252.081z"/>
			<path style="fill:#263238;" d="M256.304,303.327c0,0-7.759-17.017-16.719-27.324c0,0,2.796-4.918,13.791-7.696
				c10.995-2.777,20.637,3.1,20.637,3.1l9.909,26.897C283.921,298.304,267.354,302.945,256.304,303.327z"/>
			<g>
				<path style="fill:#EBB376;" d="M253.394,276.601c0,0-4.017,0.572-4.723-2.412c0,0,0.916-0.841,0.025-2.782
					c-0.311-0.681-0.849-1.496-1.715-2.454c-0.647-0.715-1.471-1.513-2.53-2.387l5.16-6.597c0,0,0.512,1.992,1.807,3.975
					c1.235,1.925,3.202,3.832,6.135,3.933C257.554,267.877,257.941,271.432,253.394,276.601z"/>
				<path style="opacity:0.2;enable-background:new    ;" d="M251.419,263.944c-0.63,2.479-1.504,5.101-2.723,7.463
					c-0.311-0.681-0.849-1.496-1.715-2.454c-0.647-0.715-1.471-1.513-2.53-2.387l5.16-6.597
					C249.612,259.969,250.124,261.961,251.419,263.944z"/>
			</g>
			<g>
				<path style="fill:#EBB376;" d="M241.029,244.57c-7.362,0.621-9.399,4.762-9.298,12.394c0.126,9.538,2.796,16.096,11.83,13.294
					C255.83,266.454,253.255,243.539,241.029,244.57z"/>
				<path style="fill:#D58745;" d="M236.455,256.151c0,0-0.858,2.009-1.885,3.234c0,0,0.715,0.948,2.011,0.669L236.455,256.151z"/>
				<g>
					<path style="fill:#263238;" d="M240.91,255.169c0.037,0.606,0.394,1.077,0.798,1.053c0.404-0.025,0.702-0.536,0.665-1.142
						c-0.037-0.606-0.394-1.077-0.798-1.053C241.171,254.052,240.873,254.563,240.91,255.169z"/>
					<path style="fill:#263238;" d="M241.745,254.047l-1.349-0.437C240.396,253.61,241.119,254.679,241.745,254.047z"/>
				</g>
				<g>
					<path style="fill:#263238;" d="M233.37,255.501c0.037,0.606,0.394,1.077,0.798,1.053c0.404-0.025,0.702-0.536,0.665-1.142
						c-0.037-0.606-0.394-1.077-0.798-1.053C233.63,254.385,233.333,254.896,233.37,255.501z"/>
					<path style="fill:#263238;" d="M234.205,254.379l-1.349-0.437C232.856,253.942,233.579,255.011,234.205,254.379z"/>
				</g>
				
					<path style="fill:none;stroke:#263238;stroke-width:0.7247;stroke-linecap:round;stroke-linejoin:round;stroke-miterlimit:10;" d="
					M240.555,250.079c0,0,2.046-0.444,3.287,0.844"/>
				
					<path style="fill:none;stroke:#263238;stroke-width:0.7247;stroke-linecap:round;stroke-linejoin:round;stroke-miterlimit:10;" d="
					M235.178,250.22c0,0-1.341-0.372-2.883,0.853"/>
				<g>
					<path style="fill:#263238;" d="M237.899,262.86c0.5,0.852,1.074,2.484,1.074,2.484c0.158-0.025,0.315-0.051,0.47-0.084
						c2.125-0.397,2.979-1.284,3.282-2.146c0.164-0.472,0.157-0.942,0.102-1.315c-0.059-0.433-0.2-0.728-0.2-0.728
						c-1,0.883-2.952,1.407-4.007,1.642C238.181,262.817,237.899,262.86,237.899,262.86z"/>
					<path style="fill:#FFFFFF;" d="M238.621,262.713l0.336,0.724c2-0.379,3.358-0.915,3.871-1.638
						c-0.059-0.433-0.2-0.728-0.2-0.728C241.628,261.955,239.676,262.478,238.621,262.713z"/>
					<path style="fill:#DE5753;" d="M239.444,265.26c2.125-0.397,2.979-1.284,3.282-2.146c-0.719,0.163-1.567,0.44-2.271,0.909
						C239.914,264.379,239.616,264.829,239.444,265.26z"/>
				</g>
				<path style="fill:#263238;" d="M250.121,256.299c0,0-3.952-5.758-3.825-10.472c0,0-15.091-4.729-14.562,10.139
					c0,0-2.535-13.028,10.096-14.389c12.61-1.358,14.138,17.158,8.068,23.226C249.898,264.804,252.57,259.902,250.121,256.299z"/>
				<path style="fill:#EBB376;" d="M249.05,257.954c-0.051-1.189,1.003-3.299,3.228-3.244c2.302,0.056,3.785,4.648-1.795,6.253
					C249.682,261.193,249.156,260.436,249.05,257.954z"/>
			</g>
			<g>
				<path style="fill:#263238;" d="M230.34,253.439c0,0,1.44-0.94,4.612-0.589l0.001-0.012c0,0,1.219-0.788,2.682-0.315
					c0.884-0.216,2.986-0.602,5.62-0.22l6.088,0.815l0.144,0.616l-6.047-0.137c-0.146,1.512-0.916,3.953-2.934,4.007
					c-2.686,0.072-3.144-2.617-3.242-3.901c-0.686-0.502-1.73-0.351-1.824,0.176c0.047,1.148-0.065,3.841-2.78,4.318
					C229.912,258.679,230.34,253.439,230.34,253.439z"/>
				<path style="opacity:0.2;enable-background:new    ;" d="M230.34,253.379c0,0,1.44-0.94,4.612-0.589l0.001-0.012
					c0,0,1.219-0.788,2.682-0.315c0.884-0.216,2.986-0.602,5.62-0.22l6.088,0.815l0.144,0.616l-6.047-0.137
					c-0.146,1.512-0.916,3.953-2.934,4.007c-2.686,0.072-3.144-2.617-3.242-3.9c-0.686-0.502-1.73-0.351-1.824,0.176
					c0.047,1.148-0.065,3.841-2.78,4.318C229.912,258.62,230.34,253.379,230.34,253.379z"/>
				<g style="opacity:0.3;">
					<path style="fill:#FFFFFF;" d="M231.382,253.573l2.099,3.9c0,0-1.464,0.903-2.188-0.27c-0.724-1.173-0.684-3.449-0.684-3.449
						S231.07,253.557,231.382,253.573z"/>
					<path style="fill:#FFFFFF;" d="M231.739,253.45l2.099,3.939c0,0,0.661-0.386,0.606-0.659l-1.763-3.373
						C232.681,253.357,232.007,253.414,231.739,253.45z"/>
					<path style="fill:#FFFFFF;" d="M238.777,252.927l2.1,3.9c0,0-1.464,0.903-2.188-0.27c-0.724-1.173-0.684-3.449-0.684-3.449
						S238.466,252.912,238.777,252.927z"/>
					<path style="fill:#FFFFFF;" d="M239.135,252.805l2.098,3.939c0,0,0.661-0.385,0.606-0.659l-1.763-3.373
						C240.077,252.712,239.404,252.769,239.135,252.805z"/>
				</g>
			</g>
			<path style="fill:#263238;" d="M256.304,303.327c0,0-9.096,24.651,7.803,28.863c16.899,4.211,28.492-4.379,19.814-33.886
				L256.304,303.327z"/>
			<g>
				<g>
					<path style="fill:#407BFF;" d="M262.585,303.331l0.05,0.277c-2.16,0.798-5.101,1.588-6.665,0.706
						c-2.647-1.504-3.782-7.387-3.782-7.387s-12.186-16.161-13.052-20.28c-0.865-4.126,6.404-5.74,6.404-5.74
						s2.547,4.429,3.505,5.093c0.336,0.235,1.093,0.361,1.925,0.42c0,0.076,0.017,0.151,0.034,0.227
						C251.483,278.504,262.585,303.331,262.585,303.331z"/>
					<path style="fill:#407BFF;" d="M284.663,300.961c-0.967,1.471-11.858,3.639-18.128,2.387c-2.832-3.874-12.413-26.7-12.413-26.7
						c-0.008-0.395-0.05-0.74-0.101-1.034c1.412-2.118,5.051-7.009,9.363-8.051c5.547-1.345,9.757,2.278,9.757,2.278
						s-1,9.379,1.773,14.808c2.765,5.429,7.866,5.513,7.866,5.513S285.772,299.271,284.663,300.961z"/>
					<path style="opacity:0.2;fill:#FFFFFF;" d="M262.585,303.331l0.05,0.277c-2.16,0.798-5.101,1.588-6.665,0.706
						c-2.647-1.504-3.782-7.387-3.782-7.387s-12.186-16.161-13.052-20.28c-0.865-4.126,6.404-5.74,6.404-5.74
						s2.547,4.429,3.505,5.093c0.336,0.235,1.093,0.361,1.925,0.42c0,0.076,0.017,0.151,0.034,0.227
						C251.483,278.504,262.585,303.331,262.585,303.331z"/>
					<path style="opacity:0.2;fill:#FFFFFF;" d="M284.663,300.961c-0.967,1.471-11.858,3.639-18.128,2.387
						c-2.832-3.874-12.413-26.7-12.413-26.7c-0.008-0.395-0.05-0.74-0.101-1.034c1.412-2.118,5.051-7.009,9.363-8.051
						c5.547-1.345,9.757,2.278,9.757,2.278s-1,9.379,1.773,14.808c2.765,5.429,7.866,5.513,7.866,5.513
						S285.772,299.271,284.663,300.961z"/>
				</g>
				<g>
					<path style="fill:#407BFF;" d="M254.122,276.645c0,0-0.819-4.132-0.782-6.235c0.036-2.103,4.571-6.694,6-7.202
						c1.43-0.508,4.381,0.419,4.767,4.75C264.107,267.957,263.47,275.306,254.122,276.645z"/>
					<path style="fill:#407BFF;" d="M251.007,276.645c0,0-2.251-1.642-3.359-4.191c-1.108-2.549-3.178-4.754-3.196-1.047
						C244.434,275.114,245.145,278.716,251.007,276.645z"/>
					<path style="opacity:0.4;fill:#FFFFFF;" d="M254.122,276.645c0,0-0.819-4.132-0.782-6.235c0.036-2.103,4.571-6.694,6-7.202
						c1.43-0.508,4.381,0.419,4.767,4.75C264.107,267.957,263.47,275.306,254.122,276.645z"/>
					<path style="opacity:0.4;fill:#FFFFFF;" d="M251.007,276.645c0,0-2.251-1.642-3.359-4.191
						c-1.108-2.549-3.178-4.754-3.196-1.047C244.434,275.114,245.145,278.716,251.007,276.645z"/>
				</g>
				<path style="fill:#407BFF;" d="M251.007,283.592c0.437-0.083,8.083-1.413,8.083-1.413l0.831,2.078l-7.564,1.235L251.007,283.592
					z"/>
				<polygon style="fill:#407BFF;" points="255.66,292.736 262.635,291.406 263.579,293.65 257.012,294.897 				"/>
				<polygon style="fill:#407BFF;" points="283.169,291.406 279.704,292.486 280.701,294.897 284.276,293.733 				"/>
				<polygon style="fill:#407BFF;" points="252.191,298.304 253.339,298.304 253.859,300.383 253.025,300.383 				"/>
			</g>
			<path style="fill:none;stroke:#263238;stroke-width:0.5;stroke-linecap:round;stroke-linejoin:round;stroke-miterlimit:10;" d="
				M232.295,244.536c0,0,0.013-6.987,6.326-7.284c6.313-0.297,9.656-0.099,12.386-3.857c2.729-3.758,4.125-6.527,10.746-3.758
				c6.621,2.769,9.983-1.583,9.983-1.583"/>
			<path style="fill:none;stroke:#263238;stroke-width:0.5;stroke-linecap:round;stroke-linejoin:round;stroke-miterlimit:10;" d="
				M258.46,258.836c4.856-2.405,15.667,3.538,19.671,1.765s1.602-6.012,7.207-5.508c5.605,0.504,10.51-2.471,9.509-5.78"/>
			<path style="fill:none;stroke:#263238;stroke-width:0.5;stroke-linecap:round;stroke-linejoin:round;stroke-miterlimit:10;" d="
				M253.859,236.659c4.259-4.102,6.705-4.352,9.72-2.769c3.015,1.582,7.169,0.121,9.938-2.758c2.769-2.879,8.446-0.209,11.393,1.077
				c2.947,1.286,6.508-1.78,6.508-1.78"/>
		</g>
		<g>
			<g>
				<path style="fill:#263238;" d="M177.384,308.155c0,0,11.637-21.493,13.964-22.612c2.327-1.119,7.979-3.292,13.299-1.707
					c5.32,1.585,9.974,7.57,9.974,7.57l-1.33,6.898l-22.941,13.715L177.384,308.155z"/>
				<path style="opacity:0.2;fill:#FFFFFF;" d="M177.384,308.155c0,0,11.637-21.493,13.964-22.612
					c2.327-1.119,7.979-3.292,13.299-1.707c5.32,1.585,9.974,7.57,9.974,7.57l-1.33,6.898l-22.941,13.715L177.384,308.155z"/>
				<path style="fill:#407BFF;" d="M211.907,288.48c-4.547,0.563-8.093,6.413-8.093,6.413l-13.296,8.833
					c-4.32-1.647-10.556-1.185-10.556-1.185s-0.706-0.983,0-3.194c0.664-2.084,2.941-5.984,5.328-9.539
					c2.698-4.034,5.513-7.631,6.228-7.631h0.101c1.479-0.042,10.27-0.748,14.229-0.37c0.79,0.076,1.387,0.193,1.698,0.37
					C209.445,283.261,211.907,288.48,211.907,288.48z"/>
				<path style="fill:#263238;" d="M214.621,291.406c0,0-4.156,0.665-3.99,3.491c0.166,2.826,2.66,3.407,2.66,3.407l13.964,1.565
					c0,0,4.214-2.086,3.354-3.861C229.749,294.232,214.621,291.406,214.621,291.406z"/>
			</g>
			<g>
				<path style="fill:#263238;" d="M191.348,333.195c0,0,18.186,19.709,26.049,22.374c7.863,2.665,24.745-22.604,26.445-24.599
					c1.7-1.995,49.577-9.642,56.226-8.644c6.65,0.997,17.954,2.924,20.614,5.119c2.66,2.195-3.657,12.343-3.657,12.343
					l10.639,18.174c0,0-38.01,38.463-63.557,35.326c-25.547-3.137-104.705,5.807-108.847-6.977
					C151.118,373.528,191.348,333.195,191.348,333.195z"/>
				<path style="opacity:0.4;fill:#FFFFFF;" d="M327.668,357.959c0,0-38.013,38.466-63.562,35.332
					c-25.549-3.135-104.701,5.807-108.844-6.975c-4.143-12.783,36.088-53.124,36.088-53.124s2.193,2.378,5.387,5.597
					c6.001,6.043,15.531,15.044,20.658,16.783c6.606,2.236,19.59-15.245,24.574-22.07c0.941-1.303,1.605-2.21,1.874-2.53
					c1.698-2,49.577-9.64,56.225-8.648c6.648,1,17.952,2.925,20.616,5.118c2.656,2.202-3.656,12.346-3.656,12.346L327.668,357.959z"
					/>
				<path style="opacity:0.2;enable-background:new    ;" d="M258.114,344.209c-8.48,3.378-24.759,20.565-26.978,23.927
					c-2.219,3.362-2.219,9.051-15.077,6.833c-12.85-2.219-35.903-19.506-35.903-19.506c4.37-7.681,10.329-12.993,16.582-16.674
					c6.001,6.043,15.531,15.044,20.658,16.783c6.606,2.236,19.59-15.245,24.574-22.07
					C252.256,336.965,263.4,342.108,258.114,344.209z"/>
			</g>
			<path style="fill:#407BFF;" d="M372.093,365.102c-5.387,7.824-49.207,39.03-55.183,41.862
				c-6.648,3.152-151.924,16.548-162.405,9.236c-8.698-6.059-49.837-19.12-54.485-34.012c-0.967-3.059-0.387-6.202,2.336-9.371
				c0,0,30.726-37.046,51.224-55.637c6.017-5.471,11.161-9.337,14.38-10.211c13.228-3.597,29.163-0.42,33.046,0.924
				c0.277,0.101,0.496,0.185,0.647,0.26c2.219,1.109,14.632,21.196,16.405,29.398c1.773,8.194-52.754,34.819-51.871,39.601
				c0.891,4.782,113.928,9.211,137.427-4.337C327.113,359.278,329.323,356,329.323,356s32.289,4.572,41.24,6.866
				c0.773,0.202,1.378,0.387,1.765,0.546C372.824,363.623,372.715,364.211,372.093,365.102z"/>
			<path style="fill:#407BFF;" d="M312.259,337.618c0,0,9.088-7.824,8.423-10.172c-0.665-2.349-10.418-5.209-10.418-5.209
				l-4.876-1.795c0,0,9.614,0.708,13.341,1.795c3.727,1.087,7.273,0.643,8.935,4.411c1.662,3.768-8.935,13.14-8.935,13.14
				L312.259,337.618z"/>
			<path style="fill:#263238;" d="M226.036,347.79l1.585,2.796h13.462c0,0,10.115-4.875,11.941-5.54
				c1.826-0.665,55.244-7.428,55.244-7.428s9.974-11.413,8.645-14.073c-1.33-2.66-17.067-7.224-21.944-6.272
				c-4.876,0.952-21.53,6.937-25.505,6.937c-3.975,0-37.001,9.526-40.991,13.408C224.485,341.499,222.712,343.884,226.036,347.79z"
				/>
			<path style="opacity:0.2;enable-background:new    ;" d="M370.563,362.867l-33.037-2.084l-41.618,22.423
				c0,0-8.698,15.035-11.001,16.363c-2.303,1.336-67.512,7.32-74.386,6.144c-6.867-1.177-59.847-19.221-54.443-26.701
				c5.404-7.488,57.326-40.391,56.88-43.501c-0.445-3.101-11.304-27.356-11.304-27.356c2.219,1.109,14.632,21.196,16.405,29.398
				c1.773,8.194-52.754,34.819-51.871,39.601c0.891,4.782,113.928,9.211,137.427-4.337C327.113,359.278,329.323,356,329.323,356
				S361.612,360.572,370.563,362.867z"/>
			<g>
				<path style="fill:#263238;" d="M312.259,337.618c0,0-40.371,8.314-42.794,10.974c-2.423,2.66-14.001,32.56-14.001,32.56
					s30.64-0.245,36.846,0c6.206,0.245,39.232-20.949,39.676-21.767c0.443-0.818-13.258-19.596-13.258-19.596L312.259,337.618z"/>
				<path style="opacity:0.2;fill:#FFFFFF;" d="M312.259,337.618c0,0-40.371,8.314-42.794,10.974
					c-2.423,2.66-14.001,32.56-14.001,32.56s30.64-0.245,36.846,0c6.206,0.245,39.232-20.949,39.676-21.767
					c0.443-0.818-13.258-19.596-13.258-19.596L312.259,337.618z"/>
			</g>
			<path style="opacity:0.2;enable-background:new    ;" d="M197.665,312.019c0,0-40.895,31.446-45.549,42.654
				c-4.655,11.208,55.946-21.478,55.946-21.478L197.665,312.019z"/>
			<path style="opacity:0.6;fill:#FFFFFF;" d="M192.342,289.413h3.664l-13.111,8.892l2.395-8.497l1.958-0.177l4.37-7.455
				c1.479-0.042,10.27-0.748,14.229-0.37L192.342,289.413z"/>
			<path style="opacity:0.6;fill:#FFFFFF;" d="M194.376,309.617l-45.694,31.44l4.656,2.219l-40.568,29.919l17.96-31.793l3.816-1.614
				l19.036-22.608c3.891-3.538,7.413-6.404,10.287-8.219l-26.65,34.306c0.647-0.488,33.063-24.994,54.435-37.29
				c4.395,0.563,7.816,1.387,9.354,1.916C198.191,308.919,194.376,309.617,194.376,309.617z"/>
			<path style="opacity:0.6;fill:#FFFFFF;" d="M191.68,349.494c0,0-31.031,6.19-47.245,14.392l3.802,3.325
				c0,0-22.608,14.165-26.82,21.268c-4.211,7.103,13.13,13.531,13.13,13.531s-10.009-15.14,23.664-32.583l-4.999-4.325
				C153.212,365.102,180.126,352.238,191.68,349.494z"/>
			<path style="fill:#263238;" d="M372.093,365.102c-5.387,7.824-49.207,39.03-55.183,41.862
				c-6.648,3.152-151.924,16.548-162.405,9.236c-8.698-6.059-49.837-19.12-54.485-34.012c5.933,0.79,13.632,1.815,17.187,2.32
				c6.202,0.874,30.76,19.607,38.87,24.314c8.118,4.715,30.062,1.168,30.062,1.168s23.272,3.547,25.045,3.547
				c1.773,0,103.154-8.866,107.541-10.858c4.395-2,41.635-29.264,44.736-33.247C364.983,367.472,368.714,366.043,372.093,365.102z"
				/>
			<path style="opacity:0.6;fill:#FFFFFF;" d="M362.352,366.324c0.701,0.016-20.392-3.325-20.392-3.325l-26.885,15.308h14.473
				l-16.402,19.343l-19.415,4.36l22.884-2.216l29.114-24.041l-13.732-0.283C331.997,375.469,343.512,365.881,362.352,366.324z"/>
		</g>
		<path style="fill:#EBB376;" d="M274.013,271.407c-4.6-2.318-17.489,17.255-20.042,19.5c-2.552,2.244-27.879,0.251-27.879,0.251
			l-1.164,5.283c0,0,26.139,5.032,30.536,2.902s19.169-13.29,20.333-18.095C276.961,276.444,276.883,272.854,274.013,271.407z"/>
		<path style="fill:#EBB376;" d="M278.346,304.705c-5.61-0.441-10.196,4.807-10.196,4.807c-19.265,2.616-42.285,14.3-43.685,22.224
			c-1.338,7.579,9.505,21.477,21.101,57.327c0.984,4.234-4.171,7.284-8.416,8.472c-4.251,1.19-1.744,3.665,3.054,3.465
			c4.798-0.201,8.46-0.354,11.869-0.496c3.094-0.13,1.528-2.47,0.916-7.426c-1.921-33.567-9.496-53.755-9.496-53.755
			c30.863-4.696,41.087-1.149,43.053-15.771C288.542,308.723,283.005,305.071,278.346,304.705z"/>
	</g>
	<g>
		<path style="fill:#407BFF;" d="M144.055,416.363c6.903,2.158,22.443-2.879,27.956-7.448c11.077-9.18,2.487,3.479,3.429,4.547
			c4.848,5.501,16.123,0.228,24.703-15.812c8.58-16.04,16.738-16.438,14.479-11.126c-2.259,5.312-23.793,18.499-13.615,22.756
			c10.178,4.257,47.367-31.515,60.746-36.084c13.379-4.569-2.873,7.79-6.289,7.956c-3.416,0.165-33.125,25.461-25.149,27.763
			c7.976,2.302,39.367-8.312,53.96-26.41c14.593-18.098,50.405-53.862,65.993-48.639c15.588,5.223-25.554,8.724-42.434,31.237
			c-16.879,22.513,64.953-28.503,92.345-23.302c27.391,5.2-32.614,7.31-59.578,26.299c-26.964,18.989,55.745-7.385,73.995,1.055
			c18.25,8.44-25.554-0.2-45.059,13.351c-19.505,13.55,30.684,4.98,38.462,7.842c7.778,2.862-36.841,10.3-26.832,14.862
			c10.008,4.561,57.772-2.006,49.187,13.146H119.488C119.488,418.354,128.259,411.425,144.055,416.363z"/>
		<path style="opacity:0.7;fill:#FFFFFF;" d="M430.35,418.35H119.49c0,0,8.77-6.93,24.56-1.99c6.91,2.16,22.45-2.88,27.96-7.45
			c11.08-9.18,2.49,3.48,3.43,4.55c4.85,5.5,16.12,0.23,24.7-15.81c8.58-16.04,16.74-16.44,14.48-11.13
			c-2.26,5.32-23.79,18.5-13.61,22.76c10.17,4.26,47.36-31.52,60.74-36.08c13.38-4.57-2.87,7.79-6.29,7.95
			c-3.41,0.17-33.12,25.46-25.14,27.76c7.97,2.31,39.36-8.31,53.96-26.41c14.59-18.09,50.4-53.86,65.99-48.63
			c15.59,5.22-25.56,8.72-42.43,31.23c-16.88,22.52,64.95-28.5,92.34-23.3c27.39,5.2-32.61,7.31-59.58,26.3
			c-26.96,18.99,55.75-7.39,74,1.05s-25.56-0.2-45.06,13.35c-19.51,13.55,30.68,4.98,38.46,7.85c7.78,2.86-36.84,10.3-26.83,14.86
			C391.18,409.77,438.94,403.2,430.35,418.35z"/>
		<path style="opacity:0.7;fill:#FFFFFF;" d="M223.18,414.33c1.3,0.49,2.67,3.16,7.42,4.02h-31.16c0,0,15.69-3.31,20.37-8.05
			C224.49,405.55,220.54,413.34,223.18,414.33z"/>
		<path style="opacity:0.7;fill:#FFFFFF;" d="M343.92,414.25c-4.17-2.63,10.76-6.06,0-6.85c-10.77-0.8-34.24,11.07-40.04,6.06
			c-5.8-5.01,4.48-10.77,1.32-11.45c-3.17-0.68-28.94,14.33-29.77,10.25c-0.83-4.07-0.53-5.13-4.77-1.96
			c-1.76,1.31-7,4.62-12.54,8.05h-20.75c5.06-0.68,12.11-2.8,22.1-7.53c30.69-14.5,37.3-30.85,42.17-29.67
			c4.88,1.19-11.74,13.63-9.89,17.96c1.84,4.33,37.98-13.34,44.83-12.81c6.86,0.52-13.6,7.62-14.05,13.43
			c-0.45,5.82,30.33,3.45,36.7,4.24c6.36,0.79-5.51,4.24-4.58,6.73c0.92,2.5,21.78-0.63,26.52,1.2
			C385.9,413.73,348.08,416.89,343.92,414.25z"/>
	</g>
</g>
</svg>
