<svg xmlns="http://www.w3.org/2000/svg" xmlns:xlink="http://www.w3.org/1999/xlink" width="512" zoomAndPan="magnify" viewBox="0 0 384 383.999986" height="512" preserveAspectRatio="xMidYMid meet" version="1.0"><defs><g/></defs><g fill="#f69515" fill-opacity="1"><g transform="translate(36.045341, 228.235654)"><g><path d="M 18.765625 -49.953125 C 14.523438 -53.691406 11.566406 -58.023438 9.890625 -62.953125 C 8.222656 -67.878906 7.757812 -72.878906 8.5 -77.953125 C 9.238281 -83.023438 10.984375 -87.753906 13.734375 -92.140625 C 16.492188 -96.523438 20.164062 -100.117188 24.75 -102.921875 C 29.332031 -105.734375 34.675781 -107.285156 40.78125 -107.578125 C 45.21875 -107.773438 49.457031 -107.550781 53.5 -106.90625 C 57.539062 -106.269531 62.117188 -105.066406 67.234375 -103.296875 C 68.710938 -102.804688 69.671875 -101.941406 70.109375 -100.703125 C 70.554688 -99.472656 70.554688 -98.242188 70.109375 -97.015625 C 69.671875 -95.785156 68.910156 -94.828125 67.828125 -94.140625 C 66.742188 -93.453125 65.414062 -93.398438 63.84375 -93.984375 C 59.40625 -95.566406 54.796875 -96.75 50.015625 -97.53125 C 45.242188 -98.320312 40.664062 -98.25 36.28125 -97.3125 C 31.894531 -96.375 28.078125 -94.082031 24.828125 -90.4375 C 22.171875 -87.675781 20.273438 -84.273438 19.140625 -80.234375 C 18.003906 -76.203125 17.878906 -72.140625 18.765625 -68.046875 C 19.648438 -63.960938 21.867188 -60.394531 25.421875 -57.34375 C 28.671875 -54.476562 32.09375 -52.28125 35.6875 -50.75 C 39.28125 -49.226562 42.703125 -47.828125 45.953125 -46.546875 C 49.210938 -45.265625 51.898438 -43.613281 54.015625 -41.59375 C 56.128906 -39.582031 57.335938 -36.601562 57.640625 -32.65625 C 57.835938 -28.519531 56.429688 -25.070312 53.421875 -22.3125 C 50.421875 -19.550781 46.898438 -18.023438 42.859375 -17.734375 C 38.023438 -17.441406 32.828125 -17.957031 27.265625 -19.28125 C 21.703125 -20.613281 16.457031 -23.050781 11.53125 -26.59375 C 10.25 -27.488281 9.582031 -28.570312 9.53125 -29.84375 C 9.476562 -31.125 9.820312 -32.28125 10.5625 -33.3125 C 11.300781 -34.351562 12.285156 -35.046875 13.515625 -35.390625 C 14.753906 -35.734375 16.015625 -35.460938 17.296875 -34.578125 C 20.148438 -32.515625 23.347656 -30.890625 26.890625 -29.703125 C 30.441406 -28.523438 33.84375 -27.8125 37.09375 -27.5625 C 40.34375 -27.3125 42.976562 -27.554688 45 -28.296875 C 47.019531 -29.035156 47.929688 -30.34375 47.734375 -32.21875 C 47.628906 -33.988281 46.710938 -35.363281 44.984375 -36.34375 C 43.265625 -37.332031 41 -38.296875 38.1875 -39.234375 C 35.382812 -40.171875 32.304688 -41.453125 28.953125 -43.078125 C 25.609375 -44.703125 22.210938 -46.992188 18.765625 -49.953125 Z M 39.90625 -70.203125 C 40.988281 -69.410156 42.957031 -68.445312 45.8125 -67.3125 C 48.664062 -66.175781 51.890625 -64.769531 55.484375 -63.09375 C 59.085938 -61.425781 62.585938 -59.257812 65.984375 -56.59375 C 69.378906 -53.9375 72.1875 -50.660156 74.40625 -46.765625 C 76.625 -42.878906 77.734375 -38.175781 77.734375 -32.65625 C 77.734375 -25.863281 76.351562 -20.023438 73.59375 -15.140625 C 70.832031 -10.265625 67.0625 -6.375 62.28125 -3.46875 C 57.507812 -0.5625 52.019531 1.234375 45.8125 1.921875 C 39.601562 2.609375 33.050781 2.113281 26.15625 0.4375 C 23.695312 -0.0507812 21.035156 -0.785156 18.171875 -1.765625 C 15.316406 -2.753906 12.460938 -4.035156 9.609375 -5.609375 C 8.222656 -6.398438 7.40625 -7.410156 7.15625 -8.640625 C 6.914062 -9.878906 7.09375 -11.0625 7.6875 -12.1875 C 8.28125 -13.320312 9.164062 -14.160156 10.34375 -14.703125 C 11.53125 -15.242188 12.859375 -15.117188 14.328125 -14.328125 C 20.046875 -11.273438 26.007812 -9.253906 32.21875 -8.265625 C 38.425781 -7.285156 44.238281 -7.4375 49.65625 -8.71875 C 55.070312 -10 59.476562 -12.609375 62.875 -16.546875 C 66.28125 -20.492188 67.984375 -25.863281 67.984375 -32.65625 C 67.984375 -36.695312 67.070312 -40.144531 65.25 -43 C 63.425781 -45.863281 61.0625 -48.28125 58.15625 -50.25 C 55.25 -52.21875 52.21875 -53.914062 49.0625 -55.34375 C 45.90625 -56.769531 42.945312 -58.050781 40.1875 -59.1875 C 37.4375 -60.320312 35.320312 -61.476562 33.84375 -62.65625 C 31.476562 -64.53125 29.875 -66.894531 29.03125 -69.75 C 28.195312 -72.601562 28.222656 -75.410156 29.109375 -78.171875 C 29.992188 -80.929688 31.863281 -83.25 34.71875 -85.125 C 37.582031 -87 41.5 -87.882812 46.46875 -87.78125 C 51.445312 -87.6875 57.632812 -86.160156 65.03125 -83.203125 C 66.5 -82.609375 67.40625 -81.695312 67.75 -80.46875 C 68.101562 -79.238281 68.03125 -78.03125 67.53125 -76.84375 C 67.039062 -75.664062 66.226562 -74.78125 65.09375 -74.1875 C 63.957031 -73.59375 62.65625 -73.59375 61.1875 -74.1875 C 55.570312 -76.445312 51.085938 -77.703125 47.734375 -77.953125 C 44.378906 -78.203125 41.914062 -77.878906 40.34375 -76.984375 C 38.769531 -76.097656 38.003906 -74.988281 38.046875 -73.65625 C 38.097656 -72.332031 38.71875 -71.179688 39.90625 -70.203125 Z M 39.90625 -70.203125 "/></g></g></g><g fill="#000000" fill-opacity="1"><g transform="translate(115.878798, 219.994744)"><g><path d="M 19.5 0.515625 C 16.21875 0.515625 13.320312 -0.164062 10.8125 -1.53125 C 8.3125 -2.90625 6.351562 -4.960938 4.9375 -7.703125 C 3.519531 -10.441406 2.8125 -13.820312 2.8125 -17.84375 C 2.8125 -21.863281 3.519531 -25.242188 4.9375 -27.984375 C 6.351562 -30.734375 8.3125 -32.789062 10.8125 -34.15625 C 13.320312 -35.519531 16.21875 -36.203125 19.5 -36.203125 C 22.9375 -36.203125 25.851562 -35.53125 28.25 -34.1875 C 30.65625 -32.84375 32.375 -30.796875 33.40625 -28.046875 L 28.25 -24.90625 L 27.640625 -24.921875 C 26.867188 -26.773438 25.828125 -28.101562 24.515625 -28.90625 C 23.210938 -29.71875 21.539062 -30.125 19.5 -30.125 C 16.539062 -30.125 14.226562 -29.144531 12.5625 -27.1875 C 10.90625 -25.226562 10.078125 -22.113281 10.078125 -17.84375 C 10.078125 -13.59375 10.90625 -10.488281 12.5625 -8.53125 C 14.226562 -6.570312 16.539062 -5.59375 19.5 -5.59375 C 24.144531 -5.59375 26.988281 -7.847656 28.03125 -12.359375 L 28.640625 -12.359375 L 33.84375 -9.640625 C 32.863281 -6.253906 31.191406 -3.710938 28.828125 -2.015625 C 26.472656 -0.328125 23.363281 0.515625 19.5 0.515625 Z M 19.5 0.515625 "/></g></g></g><g fill="#000000" fill-opacity="1"><g transform="translate(150.883091, 219.994744)"><g><path d="M 15.65625 0.515625 C 13.007812 0.515625 10.691406 -0.0234375 8.703125 -1.109375 C 6.710938 -2.191406 5.164062 -3.78125 4.0625 -5.875 C 2.96875 -7.96875 2.421875 -10.492188 2.421875 -13.453125 C 2.421875 -16.410156 2.96875 -18.9375 4.0625 -21.03125 C 5.164062 -23.132812 6.710938 -24.726562 8.703125 -25.8125 C 10.691406 -26.894531 13.007812 -27.4375 15.65625 -27.4375 C 18.289062 -27.4375 20.601562 -26.894531 22.59375 -25.8125 C 24.59375 -24.726562 26.144531 -23.132812 27.25 -21.03125 C 28.351562 -18.9375 28.90625 -16.410156 28.90625 -13.453125 C 28.90625 -10.492188 28.351562 -7.96875 27.25 -5.875 C 26.144531 -3.78125 24.59375 -2.191406 22.59375 -1.109375 C 20.601562 -0.0234375 18.289062 0.515625 15.65625 0.515625 Z M 15.65625 -5.21875 C 19.832031 -5.21875 21.921875 -7.960938 21.921875 -13.453125 C 21.921875 -16.296875 21.382812 -18.378906 20.3125 -19.703125 C 19.238281 -21.035156 17.6875 -21.703125 15.65625 -21.703125 C 11.46875 -21.703125 9.375 -18.953125 9.375 -13.453125 C 9.375 -7.960938 11.46875 -5.21875 15.65625 -5.21875 Z M 15.65625 -5.21875 "/></g></g></g><g fill="#000000" fill-opacity="1"><g transform="translate(182.177026, 219.994744)"><g><path d="M 3.875 0 L 3.875 -26.921875 L 10.375 -26.921875 L 10.375 -23.3125 L 10.890625 -23.21875 C 11.765625 -24.664062 12.789062 -25.726562 13.96875 -26.40625 C 15.15625 -27.09375 16.664062 -27.4375 18.5 -27.4375 C 20.539062 -27.4375 22.175781 -27.035156 23.40625 -26.234375 C 24.644531 -25.429688 25.550781 -24.253906 26.125 -22.703125 L 26.640625 -22.703125 C 27.460938 -24.316406 28.53125 -25.507812 29.84375 -26.28125 C 31.15625 -27.050781 32.785156 -27.4375 34.734375 -27.4375 C 40.316406 -27.4375 43.109375 -24.328125 43.109375 -18.109375 L 43.109375 0 L 36.359375 0 L 36.359375 -17.265625 C 36.359375 -18.835938 36.046875 -19.972656 35.421875 -20.671875 C 34.804688 -21.378906 33.816406 -21.734375 32.453125 -21.734375 C 28.734375 -21.734375 26.875 -19.25 26.875 -14.28125 L 26.875 0 L 20.125 0 L 20.125 -17.265625 C 20.125 -18.835938 19.804688 -19.972656 19.171875 -20.671875 C 18.546875 -21.378906 17.550781 -21.734375 16.1875 -21.734375 C 14.445312 -21.734375 13.085938 -21.148438 12.109375 -19.984375 C 11.128906 -18.816406 10.640625 -16.960938 10.640625 -14.421875 L 10.640625 0 Z M 3.875 0 "/></g></g></g><g fill="#000000" fill-opacity="1"><g transform="translate(228.751775, 219.994744)"><g><path d="M 3.875 10.90625 L 3.875 -26.921875 L 10.640625 -26.921875 L 10.640625 -23.40625 L 11.15625 -23.3125 C 11.957031 -24.675781 13.023438 -25.703125 14.359375 -26.390625 C 15.691406 -27.085938 17.253906 -27.4375 19.046875 -27.4375 C 21.210938 -27.4375 23.101562 -26.921875 24.71875 -25.890625 C 26.34375 -24.867188 27.601562 -23.3125 28.5 -21.21875 C 29.40625 -19.132812 29.859375 -16.546875 29.859375 -13.453125 C 29.859375 -10.378906 29.378906 -7.800781 28.421875 -5.71875 C 27.472656 -3.632812 26.148438 -2.070312 24.453125 -1.03125 C 22.765625 0 20.816406 0.515625 18.609375 0.515625 C 16.929688 0.515625 15.476562 0.234375 14.25 -0.328125 C 13.03125 -0.890625 12 -1.765625 11.15625 -2.953125 L 10.640625 -2.859375 L 10.640625 10.90625 Z M 16.71875 -5.21875 C 18.738281 -5.21875 20.269531 -5.878906 21.3125 -7.203125 C 22.351562 -8.523438 22.875 -10.609375 22.875 -13.453125 C 22.875 -16.296875 22.351562 -18.378906 21.3125 -19.703125 C 20.269531 -21.035156 18.738281 -21.703125 16.71875 -21.703125 C 14.832031 -21.703125 13.335938 -21.019531 12.234375 -19.65625 C 11.128906 -18.289062 10.578125 -16.222656 10.578125 -13.453125 C 10.578125 -10.703125 11.128906 -8.640625 12.234375 -7.265625 C 13.335938 -5.898438 14.832031 -5.21875 16.71875 -5.21875 Z M 16.71875 -5.21875 "/></g></g></g><g fill="#000000" fill-opacity="1"><g transform="translate(260.99771, 219.994744)"><g><path d="M 10.5 0.515625 C 8.769531 0.515625 7.269531 0.195312 6 -0.4375 C 4.738281 -1.070312 3.765625 -2.003906 3.078125 -3.234375 C 2.390625 -4.460938 2.046875 -5.941406 2.046875 -7.671875 C 2.046875 -9.265625 2.390625 -10.601562 3.078125 -11.6875 C 3.765625 -12.769531 4.820312 -13.65625 6.25 -14.34375 C 7.6875 -15.03125 9.554688 -15.5625 11.859375 -15.9375 C 13.472656 -16.195312 14.695312 -16.484375 15.53125 -16.796875 C 16.375 -17.109375 16.941406 -17.457031 17.234375 -17.84375 C 17.523438 -18.238281 17.671875 -18.738281 17.671875 -19.34375 C 17.671875 -20.195312 17.367188 -20.851562 16.765625 -21.3125 C 16.171875 -21.769531 15.171875 -22 13.765625 -22 C 12.273438 -22 10.851562 -21.664062 9.5 -21 C 8.144531 -20.332031 6.972656 -19.453125 5.984375 -18.359375 L 5.5 -18.359375 L 2.65625 -22.625 C 4.03125 -24.144531 5.703125 -25.328125 7.671875 -26.171875 C 9.640625 -27.015625 11.785156 -27.4375 14.109375 -27.4375 C 17.671875 -27.4375 20.25 -26.679688 21.84375 -25.171875 C 23.445312 -23.660156 24.25 -21.507812 24.25 -18.71875 L 24.25 -7.03125 C 24.25 -5.820312 24.773438 -5.21875 25.828125 -5.21875 C 26.234375 -5.21875 26.632812 -5.289062 27.03125 -5.4375 L 27.375 -5.34375 L 27.859375 -0.640625 C 27.484375 -0.390625 26.960938 -0.1875 26.296875 -0.03125 C 25.628906 0.125 24.894531 0.203125 24.09375 0.203125 C 22.488281 0.203125 21.234375 -0.101562 20.328125 -0.71875 C 19.421875 -1.34375 18.773438 -2.316406 18.390625 -3.640625 L 17.875 -3.6875 C 16.550781 -0.882812 14.09375 0.515625 10.5 0.515625 Z M 12.640625 -4.546875 C 14.203125 -4.546875 15.453125 -5.066406 16.390625 -6.109375 C 17.328125 -7.160156 17.796875 -8.625 17.796875 -10.5 L 17.796875 -13.234375 L 17.328125 -13.328125 C 16.921875 -13.003906 16.390625 -12.734375 15.734375 -12.515625 C 15.078125 -12.296875 14.128906 -12.078125 12.890625 -11.859375 C 11.421875 -11.617188 10.363281 -11.203125 9.71875 -10.609375 C 9.082031 -10.015625 8.765625 -9.171875 8.765625 -8.078125 C 8.765625 -6.921875 9.101562 -6.039062 9.78125 -5.4375 C 10.46875 -4.84375 11.421875 -4.546875 12.640625 -4.546875 Z M 12.640625 -4.546875 "/></g></g></g><g fill="#000000" fill-opacity="1"><g transform="translate(289.386826, 219.994744)"><g><path d="M 12.59375 0.515625 C 10.757812 0.515625 9.078125 0.300781 7.546875 -0.125 C 6.015625 -0.5625 4.707031 -1.15625 3.625 -1.90625 C 2.539062 -2.664062 1.738281 -3.535156 1.21875 -4.515625 L 4.984375 -8.5625 L 5.5 -8.5625 C 6.394531 -7.363281 7.453125 -6.460938 8.671875 -5.859375 C 9.890625 -5.253906 11.210938 -4.953125 12.640625 -4.953125 C 13.960938 -4.953125 14.957031 -5.1875 15.625 -5.65625 C 16.289062 -6.132812 16.625 -6.8125 16.625 -7.6875 C 16.625 -8.375 16.382812 -8.945312 15.90625 -9.40625 C 15.425781 -9.875 14.648438 -10.238281 13.578125 -10.5 L 10.015625 -11.359375 C 7.335938 -11.992188 5.382812 -12.960938 4.15625 -14.265625 C 2.925781 -15.578125 2.3125 -17.242188 2.3125 -19.265625 C 2.3125 -20.941406 2.738281 -22.394531 3.59375 -23.625 C 4.457031 -24.863281 5.664062 -25.804688 7.21875 -26.453125 C 8.769531 -27.109375 10.578125 -27.4375 12.640625 -27.4375 C 15.066406 -27.4375 17.078125 -27.085938 18.671875 -26.390625 C 20.265625 -25.691406 21.507812 -24.753906 22.40625 -23.578125 L 18.796875 -19.671875 L 18.3125 -19.671875 C 17.5625 -20.523438 16.71875 -21.144531 15.78125 -21.53125 C 14.84375 -21.925781 13.796875 -22.125 12.640625 -22.125 C 9.972656 -22.125 8.640625 -21.289062 8.640625 -19.625 C 8.640625 -18.925781 8.882812 -18.359375 9.375 -17.921875 C 9.875 -17.484375 10.753906 -17.125 12.015625 -16.84375 L 15.328125 -16.109375 C 18.066406 -15.523438 20.066406 -14.585938 21.328125 -13.296875 C 22.585938 -12.003906 23.21875 -10.265625 23.21875 -8.078125 C 23.21875 -6.367188 22.789062 -4.863281 21.9375 -3.5625 C 21.09375 -2.257812 19.875 -1.253906 18.28125 -0.546875 C 16.6875 0.160156 14.789062 0.515625 12.59375 0.515625 Z M 12.59375 0.515625 "/></g></g></g><g fill="#000000" fill-opacity="1"><g transform="translate(314.212035, 219.994744)"><g><path d="M 12.59375 0.515625 C 10.757812 0.515625 9.078125 0.300781 7.546875 -0.125 C 6.015625 -0.5625 4.707031 -1.15625 3.625 -1.90625 C 2.539062 -2.664062 1.738281 -3.535156 1.21875 -4.515625 L 4.984375 -8.5625 L 5.5 -8.5625 C 6.394531 -7.363281 7.453125 -6.460938 8.671875 -5.859375 C 9.890625 -5.253906 11.210938 -4.953125 12.640625 -4.953125 C 13.960938 -4.953125 14.957031 -5.1875 15.625 -5.65625 C 16.289062 -6.132812 16.625 -6.8125 16.625 -7.6875 C 16.625 -8.375 16.382812 -8.945312 15.90625 -9.40625 C 15.425781 -9.875 14.648438 -10.238281 13.578125 -10.5 L 10.015625 -11.359375 C 7.335938 -11.992188 5.382812 -12.960938 4.15625 -14.265625 C 2.925781 -15.578125 2.3125 -17.242188 2.3125 -19.265625 C 2.3125 -20.941406 2.738281 -22.394531 3.59375 -23.625 C 4.457031 -24.863281 5.664062 -25.804688 7.21875 -26.453125 C 8.769531 -27.109375 10.578125 -27.4375 12.640625 -27.4375 C 15.066406 -27.4375 17.078125 -27.085938 18.671875 -26.390625 C 20.265625 -25.691406 21.507812 -24.753906 22.40625 -23.578125 L 18.796875 -19.671875 L 18.3125 -19.671875 C 17.5625 -20.523438 16.71875 -21.144531 15.78125 -21.53125 C 14.84375 -21.925781 13.796875 -22.125 12.640625 -22.125 C 9.972656 -22.125 8.640625 -21.289062 8.640625 -19.625 C 8.640625 -18.925781 8.882812 -18.359375 9.375 -17.921875 C 9.875 -17.484375 10.753906 -17.125 12.015625 -16.84375 L 15.328125 -16.109375 C 18.066406 -15.523438 20.066406 -14.585938 21.328125 -13.296875 C 22.585938 -12.003906 23.21875 -10.265625 23.21875 -8.078125 C 23.21875 -6.367188 22.789062 -4.863281 21.9375 -3.5625 C 21.09375 -2.257812 19.875 -1.253906 18.28125 -0.546875 C 16.6875 0.160156 14.789062 0.515625 12.59375 0.515625 Z M 12.59375 0.515625 "/></g></g></g></svg>